<?xml version="1.0" encoding="UTF-8"?>
<!-- Generator: visioncortex VTracer 0.6.3 -->
<svg version="1.1" xmlns="http://www.w3.org/2000/svg" width="1280" height="1280">
<path d="M0 0 C170.94 0 341.88 0 518 0 C518 0.66 518 1.32 518 2 C518.77 1.71 518.77 1.71 519.56 1.41 C529.42 -0.24 541.29 6.67 549 12 C551.59 13.89 553.72 15.72 556 18 C556 18.99 556 19.98 556 21 C556.62 21.19 557.24 21.37 557.88 21.56 C561.06 23.71 561.19 26.38 562 30 C562.66 30 563.32 30 564 30 C568.1 39.23 570.72 48.88 573.5 58.56 C574.03 60.39 574.56 62.22 575.09 64.06 C576.19 67.84 577.29 71.63 578.38 75.42 C579.89 80.61 581.4 85.8 582.93 90.98 C583.16 91.79 583.4 92.6 583.65 93.44 C583.88 94.25 584.12 95.06 584.37 95.89 C586.92 104.59 589.46 113.3 592 122 C592.31 123.07 592.63 124.14 592.95 125.25 C594.99 132.26 597.02 139.27 599.06 146.28 C599.72 148.57 600.38 150.85 601.05 153.14 C610.18 184.53 610.18 184.53 610 194 C610.3 195.49 610.64 196.97 611 198.44 C612.64 205.36 612.14 211 610.43 217.85 C609.87 220.2 609.87 220.2 610.19 223.44 C609.77 231.4 605.06 237.85 599.29 243.08 C590.41 250.51 579.28 254.56 568.75 259.06 C567 259.82 565.26 260.57 563.51 261.32 C560 262.84 556.48 264.36 552.96 265.87 C548.56 267.76 544.15 269.66 539.75 271.58 C527.85 276.75 515.93 281.89 504 287 C475.09 299.35 475.09 299.35 446.39 312.2 C435.65 317.11 424.8 321.76 413.96 326.43 C409.13 328.51 404.3 330.61 399.48 332.72 C397.41 333.62 395.34 334.53 393.26 335.43 C391.93 336.02 390.59 336.6 389.26 337.19 C387.41 338 385.56 338.81 383.7 339.61 C382.65 340.08 381.59 340.54 380.5 341.01 C378 342 378 342 376 342 C376.66 343.07 377.32 344.14 378 345.25 C382.21 353.89 380.27 362.73 377.41 371.51 C374.23 380.6 370.14 389.32 366 398 C365.66 398.72 365.32 399.43 364.97 400.17 C343.92 444.38 343.92 444.38 328 453 C325.3 453.29 325.3 453.29 323 453 C322 452 321 451 320 450 C316.92 450 315.78 451.18 313.44 453.19 C310.89 455.89 310.89 455.89 309.44 459.19 C307.87 462.26 307.11 462.8 304 464 C303.34 464.66 302.68 465.32 302 466 C302 466.99 302 467.98 302 469 C294.45 473.83 294.45 473.83 289 473 C287.3 472.05 285.64 471.05 284 470 C280.52 469.12 277.21 468.86 273.62 468.79 C272.62 468.76 271.61 468.73 270.58 468.7 C268.48 468.65 266.38 468.61 264.28 468.57 C263.28 468.54 262.28 468.51 261.25 468.48 C260.34 468.46 259.42 468.44 258.49 468.42 C255.54 467.92 254.11 467.1 252 465 C252 464.01 252 463.02 252 462 C251.12 462.36 250.23 462.72 249.32 463.09 C234.49 468.83 234.49 468.83 227 467 C222.04 464.34 218.99 460.87 217.12 455.56 C216.72 454.05 216.35 452.53 216 451 C215.71 449.92 215.71 449.92 215.42 448.82 C214.48 445.24 213.68 441.64 213 438 C213.33 438 213.66 438 214 438 C214 434.7 214 431.4 214 428 C213.67 428 213.34 428 213 428 C213.2 426.53 213.2 426.53 213.39 425.04 C214.48 415.09 214.48 415.09 210.68 406.07 C207.59 402.25 204.39 398.56 201 395 C200.34 395.33 199.68 395.66 199 396 C199.42 396.55 199.84 397.11 200.28 397.68 C200.83 398.4 201.37 399.13 201.94 399.88 C202.76 400.95 202.76 400.95 203.59 402.05 C205 404 205 404 206 406 C206.66 406.33 207.32 406.66 208 407 C208.3 409.28 208.3 409.28 208 412 C197.66 421.79 184.15 423.64 170.58 423.54 C157.41 423.11 146.95 418.85 137 410 C135.98 408.68 134.98 407.35 134 406 C133.18 405.21 132.35 404.42 131.5 403.61 C122.94 394.69 119 378.13 119 366 C119.66 366 120.32 366 121 366 C120.97 365.18 120.93 364.36 120.89 363.52 C120.85 361.9 120.85 361.9 120.81 360.25 C120.78 359.18 120.74 358.12 120.71 357.02 C121.04 353.61 121.84 352.56 124 350 C124.91 347.86 124.91 347.86 125.56 345.62 C125.81 344.85 126.05 344.07 126.3 343.26 C126.53 342.52 126.76 341.77 127 341 C127.67 339 128.33 337 129 335 C128.4 334.82 127.79 334.64 127.17 334.45 C121.75 332.74 118.05 331.05 114 327 C113.01 327.33 112.02 327.66 111 328 C108.18 326.97 105.52 325.86 102.79 324.62 C101.97 324.25 101.14 323.88 100.29 323.51 C97.59 322.31 94.89 321.09 92.19 319.88 C90.33 319.05 88.48 318.22 86.63 317.4 C83.81 316.15 81 314.9 78.19 313.65 C69.63 309.83 61.04 306.09 52.44 302.38 C51.15 301.82 49.87 301.27 48.59 300.71 C45.73 299.47 42.86 298.24 40 297 C40 296.34 40 295.68 40 295 C38.99 294.9 37.98 294.79 36.94 294.69 C32.79 293.96 29.79 292.78 26 291 C26 290.34 26 289.68 26 289 C23.4 287.4 21.99 287 18.88 287 C17.93 287 16.98 287 16 287 C14.67 285.67 13.33 284.33 12 283 C11.01 283.33 10.02 283.66 9 284 C6.18 283.01 6.18 283.01 2.8 281.47 C1.91 281.07 1.91 281.07 1 280.66 C-0.9 279.8 -2.79 278.93 -4.69 278.06 C-5.97 277.48 -7.26 276.9 -8.55 276.31 C-11.7 274.89 -14.85 273.45 -18 272 C-18 271.34 -18 270.68 -18 270 C-20.6 268.44 -22.45 267.94 -25.5 267.5 C-28.55 267.06 -30.4 266.56 -33 265 C-33 264.34 -33 263.68 -33 263 C-34.92 262.18 -36.83 261.37 -38.75 260.56 C-40.35 259.88 -40.35 259.88 -41.98 259.19 C-44.83 257.98 -44.83 257.98 -47.27 257.46 C-49 257 -49 257 -51 255 C-54.38 253.4 -56.17 253 -60 253 C-61 252 -62 251 -63 250 C-65.77 248.98 -68.54 248.13 -71.38 247.31 C-78.89 243.55 -83.97 237.21 -88 230 C-88.49 229.15 -88.98 228.3 -89.48 227.43 C-95 216.33 -94.03 202.98 -92 191 C-91.01 190.01 -91.01 190.01 -90 189 C-89.41 186.89 -88.9 184.76 -88.44 182.62 C-88.19 181.48 -87.94 180.34 -87.68 179.16 C-87.46 178.12 -87.23 177.08 -87 176 C-86.67 174.66 -86.34 173.33 -86 172 C-85.81 171.26 -85.63 170.51 -85.44 169.75 C-85.29 169.17 -85.15 168.6 -85 168 C-84.34 168 -83.68 168 -83 168 C-82.87 167.2 -82.73 166.41 -82.6 165.59 C-82.07 162.39 -81.53 159.2 -81 156 C-80.85 154.92 -80.71 153.84 -80.56 152.73 C-80 150 -80 150 -78 148 C-77.22 145.71 -76.52 143.39 -75.88 141.06 C-75.52 139.82 -75.17 138.57 -74.8 137.29 C-73.88 134.08 -73.88 134.08 -74 131 C-73.69 129.66 -73.37 128.32 -73 127 C-72.34 127 -71.68 127 -71 127 C-69.99 122.2 -69 117.43 -68.44 112.56 C-68 109 -68 109 -67 106 C-66.34 106 -65.68 106 -65 106 C-65 104.02 -65 102.04 -65 100 C-64.34 100 -63.68 100 -63 100 C-62.91 98.74 -62.91 98.74 -62.82 97.45 C-62.73 96.35 -62.65 95.25 -62.56 94.12 C-62.48 93.03 -62.4 91.94 -62.32 90.82 C-62 88 -62 88 -61 86 C-60.34 86 -59.68 86 -59 86 C-58.67 82.7 -58.34 79.4 -58 76 C-57.34 76 -56.68 76 -56 76 C-55.95 75.15 -55.9 74.29 -55.85 73.41 C-55.78 72.31 -55.7 71.2 -55.62 70.06 C-55.56 68.96 -55.49 67.86 -55.41 66.72 C-55.21 65.37 -55.21 65.37 -55 64 C-54.34 63.67 -53.68 63.34 -53 63 C-52.19 60.2 -51.5 57.46 -50.88 54.62 C-50.69 53.84 -50.51 53.06 -50.32 52.26 C-49.6 49.07 -49 46.28 -49 43 C-48.34 42.67 -47.68 42.34 -47 42 C-47 40.35 -47 38.7 -47 37 C-46.34 36.67 -45.68 36.34 -45 36 C-44.1 34.23 -43.25 32.43 -42.44 30.62 C-39.17 23.85 -34.98 18.62 -30 13 C-30.5 12.01 -30.5 12.01 -31 11 C-30.01 11 -29.02 11 -28 11 C-27.34 10.34 -26.68 9.68 -26 9 C-24.82 8.67 -23.65 8.34 -22.44 8 C-21.3 7.67 -20.17 7.34 -19 7 C-18.67 6.34 -18.34 5.68 -18 5 C-15.82 4.18 -15.82 4.18 -13.12 3.44 C-12.24 3.19 -11.36 2.94 -10.45 2.68 C-9.64 2.46 -8.83 2.23 -8 2 C-7.01 1.67 -6.02 1.34 -5 1 C-3.33 0.96 -1.67 0.95 0 1 C0 0.67 0 0.34 0 0 Z M-22.4 36.7 C-28.45 45.57 -32.44 56.82 -33.27 67.46 C-33.99 73.17 -36.08 78.39 -38.09 83.76 C-38.5 84.89 -38.91 86.02 -39.34 87.18 C-40.68 90.83 -42.02 94.48 -43.38 98.12 C-44.3 100.64 -45.22 103.15 -46.14 105.66 C-47.95 110.58 -49.76 115.5 -51.57 120.42 C-53.54 125.76 -55.51 131.11 -57.46 136.46 C-61.16 146.62 -64.9 156.76 -68.75 166.86 C-78.26 189.65 -78.26 189.65 -76.25 213.5 C-73.02 220.44 -68.94 224.76 -62 228 C-58.98 228.91 -55.96 229.63 -52.88 230.32 C-50.45 230.89 -48.25 231.58 -45.94 232.5 C-41.95 234.09 -37.87 235.16 -33.71 236.25 C-31.31 236.91 -28.98 237.67 -26.62 238.5 C-20.89 240.46 -14.98 242.01 -9 243 C-8.34 242.67 -7.68 242.34 -7 242 C-7 242.66 -7 243.32 -7 244 C-2.18 245.51 2.61 246.97 7.56 248 C11.3 248.8 14.85 249.9 18.46 251.13 C21.57 252.2 24.69 253.24 27.81 254.25 C29.43 254.78 29.43 254.78 31.08 255.33 C33.93 255.99 35.31 256.02 38 255 C38 255.66 38 256.32 38 257 C43.18 258.61 48.35 260.11 53.62 261.38 C59.35 262.77 64.95 264.49 70.57 266.29 C73.7 267.29 76.81 268.21 80 269 C81.77 269.5 83.53 270.01 85.29 270.52 C86.31 270.82 87.34 271.12 88.39 271.43 C89.46 271.74 90.53 272.05 91.62 272.38 C92.67 272.68 93.71 272.98 94.79 273.3 C100.45 274.95 106.11 276.63 111.75 278.38 C114.17 279.05 116.59 279.51 119.06 279.94 C123.38 280.74 127.05 282.17 130.99 284.1 C133.01 285 134.85 285.5 137 286 C138.62 286.46 140.23 286.93 141.85 287.39 C146.47 288.7 151.11 289.95 155.75 291.19 C156.79 291.47 157.83 291.76 158.9 292.05 C159.9 292.32 160.9 292.58 161.92 292.86 C162.83 293.1 163.73 293.34 164.66 293.59 C167.14 294.22 167.14 294.22 170 293 C170 293.66 170 294.32 170 295 C170.58 295.14 171.17 295.28 171.77 295.43 C175.95 296.5 180.04 297.88 184.16 299.18 C187.42 300.21 190.67 301.19 194 302 C195.24 302.31 196.48 302.62 197.75 302.94 C198.79 303.2 198.79 303.2 199.84 303.46 C201.28 303.82 202.72 304.18 204.16 304.54 C205.19 304.8 205.19 304.8 206.25 305.06 C207.49 305.37 208.73 305.68 210 306 C210.68 306.17 211.37 306.33 212.07 306.5 C214.56 307.14 216.91 308.04 219.31 308.94 C223.5 310.48 227.68 311.84 232 313 C235.18 313.9 238.35 314.81 241.51 315.76 C244.34 316.6 247.17 317.43 250 318.25 C250.96 318.54 251.92 318.84 252.91 319.14 C258.68 320.79 262.24 321.31 268 319 C270.85 318.22 273.7 317.45 276.55 316.68 C278.38 316.17 280.2 315.6 282 315 C282 314.34 282 313.68 282 313 C282.85 313.29 282.85 313.29 283.72 313.59 C286.47 314.09 287.89 313.6 290.5 312.62 C293.32 311.59 296.08 310.71 299 310 C299.99 309.67 300.98 309.34 302 309 C302 308.34 302 307.68 302 307 C302.58 307.18 303.15 307.37 303.75 307.56 C306.27 308.05 307.62 307.8 310.07 307.07 C310.82 306.85 311.57 306.63 312.35 306.41 C313.12 306.17 313.89 305.93 314.69 305.69 C315.47 305.46 316.26 305.24 317.06 305 C319.06 304.4 321.04 303.71 323 303 C323.33 302.34 323.66 301.68 324 301 C325.93 300.62 325.93 300.62 328.31 300.44 C337.57 299.69 344.34 294.93 350.62 288.19 C353.59 285.45 354.97 285 359 285 C360.47 285.58 361.93 286.19 363.38 286.81 C365.65 287.77 365.65 287.77 368 288 C370.42 286.78 372.2 285.29 374.24 283.52 C376.58 281.5 377.9 280.92 381 281 C384.07 281.83 387.03 282.86 390 284 C390 283.34 390 282.68 390 282 C391.01 282.04 392.01 282.08 393.05 282.12 C397.12 282 400.31 281.25 404.19 280.06 C405.38 279.7 406.57 279.34 407.79 278.97 C408.85 278.65 409.91 278.33 411 278 C412.33 277.66 413.67 277.33 415 277 C417.33 276.34 419.67 275.67 422 275 C423.2 274.66 424.4 274.32 425.64 273.96 C426.83 273.63 428.02 273.29 429.25 272.94 C430.45 272.6 431.65 272.25 432.89 271.9 C434.94 271.31 436.98 270.67 439 270 C441.14 269.33 443.29 268.66 445.44 268 C446.57 267.65 447.7 267.3 448.87 266.94 C450.62 266.41 452.38 265.91 454.16 265.5 C456.07 265.05 456.07 265.05 457.97 264 C460.81 262.6 463.69 262.16 466.78 261.56 C469.03 261.08 469.03 261.08 471.06 259.97 C473 259 473 259 476.56 258.5 C480.11 258.23 480.11 258.23 483 256 C484.65 255.61 486.33 255.29 488 255 C489.54 254.67 491.08 254.34 492.62 254 C493.38 253.84 494.14 253.67 494.91 253.5 C497.17 252.99 497.17 252.99 500 252 C500 251.34 500 250.68 500 250 C500.75 249.95 501.5 249.9 502.27 249.85 C503.25 249.78 504.24 249.7 505.25 249.62 C506.22 249.56 507.2 249.49 508.2 249.41 C510.95 249.01 512.57 248.27 515 247 C516.74 246.57 518.49 246.2 520.25 245.88 C521.14 245.71 522.03 245.54 522.95 245.37 C523.63 245.25 524.3 245.12 525 245 C525.33 244.01 525.66 243.02 526 242 C526.9 241.94 527.81 241.88 528.74 241.82 C529.92 241.73 531.1 241.65 532.31 241.56 C533.48 241.48 534.66 241.4 535.86 241.32 C539.03 241.11 539.03 241.11 542 240 C542 239.34 542 238.68 542 238 C542.6 238.21 543.2 238.41 543.81 238.62 C546.28 239.31 546.28 239.31 549 237 C552.18 236.32 555.34 235.75 558.55 235.23 C562.48 234.53 564.26 233.77 567 231 C570.07 230.41 570.07 230.41 573.69 230.06 C583.13 228.85 588.22 226.48 594.46 219.29 C599.98 211.08 600.03 202.48 599 193 C597.87 187.45 595.97 182.29 594 177 C593.17 174.7 592.33 172.4 591.5 170.1 C589.38 164.26 587.23 158.43 585.07 152.61 C582.53 145.75 580.04 138.88 577.55 132 C577.25 131.19 576.96 130.38 576.66 129.54 C576.41 128.85 576.16 128.16 575.9 127.45 C574.9 124.71 573.87 121.98 572.84 119.25 C570.15 112.07 567.5 104.87 564.84 97.68 C564.08 95.62 563.31 93.56 562.55 91.5 C554.65 70.18 554.65 70.18 550.94 59.45 C549.15 54.31 547.13 49.32 544.98 44.32 C544 42 544 42 543 39 C541.64 37.64 541.64 37.64 539.95 36.41 C539.02 35.7 539.02 35.7 538.08 34.97 C537.44 34.49 536.79 34 536.12 33.5 C534.86 32.53 533.59 31.56 532.32 30.59 C531.47 29.95 531.47 29.95 530.61 29.3 C529 28 529 28 527.42 26.4 C524.05 23.07 519.96 23.86 515.53 23.87 C514.64 23.86 513.75 23.86 512.83 23.86 C509.81 23.85 506.79 23.85 503.78 23.85 C501.6 23.85 499.43 23.85 497.26 23.84 C491.26 23.83 485.26 23.83 479.26 23.83 C472.8 23.82 466.34 23.81 459.88 23.8 C445.01 23.78 430.14 23.77 415.26 23.77 C407.91 23.76 400.57 23.76 393.22 23.75 C368.07 23.73 342.92 23.72 317.77 23.71 C316.19 23.71 314.62 23.71 313.04 23.71 C312.25 23.71 311.47 23.71 310.66 23.71 C306.69 23.71 302.73 23.71 298.76 23.7 C297.58 23.7 297.58 23.7 296.37 23.7 C270.84 23.7 245.31 23.67 219.77 23.64 C192.79 23.61 165.8 23.59 138.81 23.58 C135.85 23.58 132.89 23.58 129.93 23.58 C128.83 23.58 128.83 23.58 127.72 23.58 C115.98 23.58 104.23 23.56 92.49 23.54 C80.69 23.52 68.89 23.52 57.08 23.53 C50.69 23.53 44.3 23.53 37.9 23.51 C32.05 23.49 26.19 23.49 20.34 23.51 C18.22 23.51 16.1 23.51 13.98 23.49 C11.11 23.48 8.23 23.49 5.35 23.51 C4.52 23.49 3.7 23.48 2.85 23.47 C-7.6 23.6 -15.86 28.74 -22.4 36.7 Z M564 35 C565 38 565 38 565 38 Z M565 38 C566 40 566 40 566 40 Z M566 42 C567 45 567 45 567 45 Z M567 45 C568 48 568 48 568 48 Z M568 48 C569 51 569 51 569 51 Z M569 51 C570 54 570 54 570 54 Z M570 55 C571 57 571 57 571 57 Z M571 59 C572 61 572 61 572 61 Z M572 62 C572.33 64.31 572.66 66.62 573 69 C573.69 67.15 573.69 67.15 574 65 C573.34 64.01 572.68 63.02 572 62 Z M-34 64 C-33 67 -33 67 -33 67 Z M-35 67 C-34 69 -34 69 -34 69 Z M-36 69 C-35 72 -35 72 -35 72 Z M574 69 C575 71 575 71 575 71 Z M-37 72 C-36 75 -36 75 -36 75 Z M575 72 C576 75 576 75 576 75 Z M-38 75 C-37 78 -37 78 -37 78 Z M576 75 C577 79 577 79 577 79 Z M-39 78 C-38 80 -38 80 -38 80 Z M577 79 C578 83 578 83 578 83 Z M-40 80 C-39 83 -39 83 -39 83 Z M-41 83 C-42.88 86.87 -42.88 86.87 -42 91 C-40.12 87.13 -40.12 87.13 -41 83 Z M578 83 C578.58 88.31 578.58 88.31 581 93 C580.42 87.69 580.42 87.69 578 83 Z M-44 91 C-43 94 -43 94 -43 94 Z M581 93 C582 95 582 95 582 95 Z M-45 94 C-44 97 -44 97 -44 97 Z M582 96 C583 99 583 99 583 99 Z M-46 97 C-46.33 98.65 -46.66 100.3 -47 102 C-46.34 101.34 -45.68 100.68 -45 100 C-45.33 99.01 -45.66 98.02 -46 97 Z M583 100 C584 102 584 102 584 102 Z M-48 102 C-47 105 -47 105 -47 105 Z M584 103 C585 106 585 106 585 106 Z M-49 105 C-49.33 106.65 -49.66 108.3 -50 110 C-49.34 109.34 -48.68 108.68 -48 108 C-48.33 107.01 -48.66 106.02 -49 105 Z M585 107 C585.33 108.65 585.66 110.3 586 112 C586.33 111.34 586.66 110.68 587 110 C586.34 109.01 585.68 108.02 585 107 Z M-51 110 C-50 113 -50 113 -50 113 Z M-52 113 C-51 116 -51 116 -51 116 Z M-53 116 C-53.33 117.65 -53.66 119.3 -54 121 C-53.34 120.34 -52.68 119.68 -52 119 C-52.33 118.01 -52.66 117.02 -53 116 Z M588 117 C589 120 589 120 589 120 Z M589 120 C590 123 590 123 590 123 Z M-55 121 C-54 124 -54 124 -54 124 Z M-56 124 C-55 127 -55 127 -55 127 Z M590 124 C590.33 125.98 590.66 127.96 591 130 C591.33 129.01 591.66 128.02 592 127 C591.34 126.01 590.68 125.02 590 124 Z M-57 127 C-56 130 -56 130 -56 130 Z M-73 128 C-72 130 -72 130 -72 130 Z M-58 130 C-57 132 -57 132 -57 132 Z M592 131 C593 134 593 134 593 134 Z M-59 132 C-58 135 -58 135 -58 135 Z M593 134 C594 137 594 137 594 137 Z M-60 135 C-59 138 -59 138 -59 138 Z M594 137 C595 141 595 141 595 141 Z M-61 138 C-61.33 139.65 -61.66 141.3 -62 143 C-61.34 142.34 -60.68 141.68 -60 141 C-60.33 140.01 -60.66 139.02 -61 138 Z M595 141 C596 144 596 144 596 144 Z M-63 143 C-62 146 -62 146 -62 146 Z M596 144 C597 147 597 147 597 147 Z M-64 146 C-63 149 -63 149 -63 149 Z M597 148 C598 150 598 150 598 150 Z M-65 149 C-65.33 149.99 -65.66 150.98 -66 152 C-65.34 152 -64.68 152 -64 152 C-64.33 151.01 -64.66 150.02 -65 149 Z M-80 152 C-79 154 -79 154 -79 154 Z M598 152 C599 154 599 154 599 154 Z M-67 154 C-66 157 -66 157 -66 157 Z M599 155 C600 158 600 158 600 158 Z M-68 157 C-68.33 158.65 -68.66 160.3 -69 162 C-68.34 161.34 -67.68 160.68 -67 160 C-67.33 159.01 -67.66 158.02 -68 157 Z M600 158 C601 161 601 161 601 161 Z M601 161 C602 165 602 165 602 165 Z M-70 162 C-69 165 -69 165 -69 165 Z M-71 165 C-70 168 -70 168 -70 168 Z M602 165 C603 168 603 168 603 168 Z M-72 168 C-71 171 -71 171 -71 171 Z M603 169 C604 172 604 172 604 172 Z M-73 171 C-72 173 -72 173 -72 173 Z M604 172 C605 175 605 175 605 175 Z M-74 173 C-73 176 -73 176 -73 176 Z M605 175 C605.33 177.31 605.66 179.62 606 182 C606.69 180.15 606.69 180.15 607 178 C606.34 177.01 605.68 176.02 605 175 Z M-75 176 C-75.33 177.65 -75.66 179.3 -76 181 C-75.34 180.34 -74.68 179.68 -74 179 C-74.33 178.01 -74.66 177.02 -75 176 Z M-77 182 C-76 185 -76 185 -76 185 Z M607 182 C608 186 608 186 608 186 Z M-79 188 C-78 192 -78 192 -78 192 Z M608 188 C609 192 609 192 609 192 Z M-80 192 C-80 197.61 -80 203.22 -80 209 C-79.67 209 -79.34 209 -79 209 C-79 203.39 -79 197.78 -79 192 C-79.33 192 -79.66 192 -80 192 Z M608 224 C607.67 225.32 607.34 226.64 607 228 C607.66 226.68 608.32 225.36 609 224 C608.67 224 608.34 224 608 224 Z M606 228 C604.02 230.97 604.02 230.97 602 234 C602.33 234.66 602.66 235.32 603 236 C605.13 233.69 605.13 233.69 607 231 C606.67 230.01 606.34 229.02 606 228 Z M601 236 C599.02 238.31 597.04 240.62 595 243 C598.23 241.38 599.71 240.52 602 238 C601.67 237.34 601.34 236.68 601 236 Z M593 243 C592.67 243.66 592.34 244.32 592 245 C592.99 244.67 593.98 244.34 595 244 C594.34 243.67 593.68 243.34 593 243 Z M590 245 C589.67 245.66 589.34 246.32 589 247 C589.99 246.67 590.98 246.34 592 246 C591.34 245.67 590.68 245.34 590 245 Z M578 251 C577.34 251.66 576.68 252.32 576 253 C577.65 252.67 579.3 252.34 581 252 C580.01 251.67 579.02 251.34 578 251 Z M571 254 C570.34 254.66 569.68 255.32 569 256 C570.65 255.67 572.3 255.34 574 255 C573.01 254.67 572.02 254.34 571 254 Z M562 259 C565.93 258.43 565.93 258.43 569 256 C565.48 256 564.63 256.82 562 259 Z M553.81 261.44 C552.88 261.95 551.96 262.47 551 263 C554.07 264.4 554.07 264.4 557.19 262.56 C558.12 262.05 559.04 261.53 560 261 C556.93 259.6 556.93 259.6 553.81 261.44 Z M541 267 C540.34 267.66 539.68 268.32 539 269 C540.65 268.67 542.3 268.34 544 268 C543.01 267.67 542.02 267.34 541 267 Z M532 271 C531.34 271.66 530.68 272.32 530 273 C531.65 272.67 533.3 272.34 535 272 C534.01 271.67 533.02 271.34 532 271 Z M523 276 C526.93 275.43 526.93 275.43 530 273 C526.48 273 525.63 273.82 523 276 Z M505.31 282.44 C503.82 283.15 503.82 283.15 502.3 283.87 C501.54 284.24 500.78 284.62 500 285 C503.92 286.31 505.04 285.32 508.69 283.56 C509.68 283.09 510.68 282.62 511.7 282.13 C512.46 281.76 513.22 281.38 514 281 C510.08 279.69 508.96 280.68 505.31 282.44 Z M491 290 C494.93 289.43 494.93 289.43 498 287 C494.48 287 493.63 287.82 491 290 Z M481.81 292.44 C480.88 292.95 479.96 293.47 479 294 C479.99 294.5 479.99 294.5 481 295 C483.36 294.06 485.7 293.07 488 292 C484.93 290.6 484.93 290.6 481.81 292.44 Z M347 293 C346.67 293.66 346.34 294.32 346 295 C346.66 295 347.32 295 348 295 C347.67 294.34 347.34 293.68 347 293 Z M471.77 296.65 C470.97 297.02 470.16 297.38 469.34 297.76 C468.5 298.15 467.67 298.54 466.81 298.94 C465.97 299.32 465.12 299.71 464.25 300.11 C462.16 301.06 460.08 302.03 458 303 C461.52 304.17 462 303.84 465.23 302.35 C466.43 301.8 466.43 301.8 467.66 301.24 C468.5 300.85 469.33 300.46 470.19 300.06 C471.03 299.68 471.88 299.29 472.75 298.89 C474.84 297.94 476.92 296.97 479 296 C475.48 294.83 475 295.16 471.77 296.65 Z M451 307 C454.93 306.43 454.93 306.43 458 304 C454.48 304 453.63 304.82 451 307 Z M446 308 C445.34 308.66 444.68 309.32 444 310 C445.65 309.67 447.3 309.34 449 309 C448.01 308.67 447.02 308.34 446 308 Z M433.31 313.44 C431.82 314.15 431.82 314.15 430.3 314.87 C429.54 315.24 428.78 315.62 428 316 C431.92 317.31 433.04 316.32 436.69 314.56 C437.68 314.09 438.68 313.62 439.7 313.13 C440.46 312.76 441.22 312.38 442 312 C438.08 310.69 436.96 311.68 433.31 313.44 Z M419 321 C422.93 320.43 422.93 320.43 426 318 C422.48 318 421.63 318.82 419 321 Z M98 320 C99.98 320.99 99.98 320.99 102 322 C101.67 321.34 101.34 320.68 101 320 C100.01 320 99.02 320 98 320 Z M416 321 C415.34 321.66 414.68 322.32 414 323 C415.65 322.67 417.3 322.34 419 322 C418.01 321.67 417.02 321.34 416 321 Z M405 327 C408.93 326.43 408.93 326.43 412 324 C408.48 324 407.63 324.82 405 327 Z M396 331 C399.93 330.43 399.93 330.43 403 328 C399.48 328 398.63 328.82 396 331 Z M388.8 332.58 C388.01 332.94 387.21 333.29 386.39 333.66 C385.56 334.04 384.73 334.42 383.88 334.81 C383.04 335.18 382.2 335.55 381.34 335.93 C376.91 337.61 376.91 337.61 374 341 C381.67 338.66 388.77 335.45 396 332 C392.51 330.84 392.02 331.14 388.8 332.58 Z M377 349 C376.67 354.28 376.34 359.56 376 365 C376.66 364.67 377.32 364.34 378 364 C378 359.05 378 354.1 378 349 C377.67 349 377.34 349 377 349 Z M375 365 C376 367 376 367 376 367 Z M374 369 C375 372 375 372 375 372 Z M373 372 C374 374 374 374 374 374 Z M372 374 C373 378 373 378 373 378 Z M371 378 C372 381 372 381 372 381 Z M370 381 C370 384 370 384 370 384 Z M368 384 C369 387 369 387 369 387 Z M367 387 C366.67 388.32 366.34 389.64 366 391 C366.66 390.67 367.32 390.34 368 390 C367.67 389.01 367.34 388.02 367 387 Z M365 391 C366 394 366 394 366 394 Z M364 394 C365 396 365 396 365 396 Z M363 396 C364 398 364 398 364 398 Z M362 398 C363 400 363 400 363 400 Z M361 400 C362 402 362 402 362 402 Z M360 402 C361 404 361 404 361 404 Z M359 404 C360 406 360 406 360 406 Z M358 406 C359 408 359 408 359 408 Z M206 408 C207 411 207 411 207 411 Z M357 408 C357 411 357 411 357 411 Z M355 411 C356 413 356 413 356 413 Z M354 413 C353.67 414.32 353.34 415.64 353 417 C353.66 416.67 354.32 416.34 355 416 C354.67 415.01 354.34 414.02 354 413 Z M352 417 C353 419 353 419 353 419 Z M155 419 C159 420 159 420 159 420 Z M187 419 C191 420 191 420 191 420 Z M351 419 C351 422 351 422 351 422 Z M159 420 C163 421 163 421 163 421 Z M183 420 C187 421 187 421 187 421 Z M163 421 C163 421.33 163 421.66 163 422 C169.6 422 176.2 422 183 422 C183 421.67 183 421.34 183 421 C176.4 421 169.8 421 163 421 Z M349 422 C350 424 350 424 350 424 Z M348 424 C349 426 349 426 349 426 Z M347 426 C346.34 427.32 345.68 428.64 345 430 C345.99 429.34 346.98 428.68 348 428 C347.67 427.34 347.34 426.68 347 426 Z M344 430 C345 432 345 432 345 432 Z M342 433 C342 436 342 436 342 436 Z M340 436 C341 438 341 438 341 438 Z M315 447 C314.01 448.49 314.01 448.49 313 450 C313.99 449.67 314.98 449.34 316 449 C315.67 448.34 315.34 447.68 315 447 Z M309 454 C310 456 310 456 310 456 Z M308 456 C309 458 309 458 309 458 Z M245 460 C244.34 460.66 243.68 461.32 243 462 C244.32 461.67 245.64 461.34 247 461 C246.34 460.67 245.68 460.34 245 460 Z M227 464 C227 464.33 227 464.66 227 465 C230.3 465 233.6 465 237 465 C237 464.67 237 464.34 237 464 C233.7 464 230.4 464 227 464 Z M256 466 C256 466.33 256 466.66 256 467 C263.92 467 271.84 467 280 467 C280 466.67 280 466.34 280 466 C272.08 466 264.16 466 256 466 Z M299 467 C298.67 467.66 298.34 468.32 298 469 C298.99 468.67 299.98 468.34 301 468 C300.34 467.67 299.68 467.34 299 467 Z M290 470 C290 470.33 290 470.66 290 471 C291.98 471 293.96 471 296 471 C296 470.67 296 470.34 296 470 C294.02 470 292.04 470 290 470 Z " fill="#050504" transform="translate(352,445)"/>
<path d="M0 0 C1.22 3.66 0.72 4.32 -0.94 7.69 C-9.05 23.01 -25.18 28.62 -40.25 35.06 C-42 35.82 -43.74 36.57 -45.49 37.32 C-49 38.84 -52.52 40.36 -56.04 41.87 C-60.44 43.76 -64.85 45.66 -69.25 47.58 C-81.15 52.75 -93.07 57.89 -105 63 C-133.91 75.35 -133.91 75.35 -162.61 88.2 C-173.35 93.11 -184.2 97.76 -195.04 102.43 C-199.87 104.51 -204.7 106.61 -209.52 108.72 C-211.59 109.62 -213.66 110.53 -215.74 111.43 C-217.07 112.02 -218.41 112.6 -219.74 113.19 C-221.59 114 -223.44 114.81 -225.3 115.61 C-226.35 116.08 -227.41 116.54 -228.5 117.01 C-231 118 -231 118 -233 118 C-232.34 119.07 -231.68 120.14 -231 121.25 C-226.79 129.89 -228.73 138.73 -231.59 147.51 C-234.77 156.6 -238.86 165.32 -243 174 C-243.34 174.72 -243.68 175.43 -244.03 176.17 C-265.08 220.38 -265.08 220.38 -281 229 C-283.7 229.29 -283.7 229.29 -286 229 C-287 228 -288 227 -289 226 C-292.08 226 -293.22 227.18 -295.56 229.19 C-298.11 231.89 -298.11 231.89 -299.56 235.19 C-301.13 238.26 -301.89 238.8 -305 240 C-305.66 240.66 -306.32 241.32 -307 242 C-307 242.99 -307 243.98 -307 245 C-314.55 249.83 -314.55 249.83 -320 249 C-321.7 248.05 -323.36 247.05 -325 246 C-328.48 245.12 -331.79 244.86 -335.38 244.79 C-336.38 244.76 -337.39 244.73 -338.42 244.7 C-340.52 244.65 -342.62 244.61 -344.72 244.57 C-346.22 244.52 -346.22 244.52 -347.75 244.48 C-348.66 244.46 -349.58 244.44 -350.51 244.42 C-353.46 243.92 -354.89 243.1 -357 241 C-357 240.01 -357 239.02 -357 238 C-358.32 238.54 -358.32 238.54 -359.68 239.09 C-374.51 244.83 -374.51 244.83 -382 243 C-386.96 240.34 -390.01 236.87 -391.88 231.56 C-392.28 230.05 -392.65 228.53 -393 227 C-393.19 226.28 -393.38 225.56 -393.58 224.82 C-394.52 221.24 -395.32 217.64 -396 214 C-395.67 214 -395.34 214 -395 214 C-395 210.7 -395 207.4 -395 204 C-395.33 204 -395.66 204 -396 204 C-395.87 203.02 -395.74 202.04 -395.61 201.04 C-394.52 191.09 -394.52 191.09 -398.32 182.07 C-401.41 178.25 -404.61 174.56 -408 171 C-408.66 171.33 -409.32 171.66 -410 172 C-409.37 172.83 -409.37 172.83 -408.72 173.68 C-408.17 174.4 -407.63 175.13 -407.06 175.88 C-406.52 176.59 -405.97 177.31 -405.41 178.05 C-404 180 -404 180 -403 182 C-402.34 182.33 -401.68 182.66 -401 183 C-400.7 185.28 -400.7 185.28 -401 188 C-411.34 197.79 -424.85 199.64 -438.42 199.54 C-451.59 199.11 -462.05 194.85 -472 186 C-473.02 184.68 -474.02 183.35 -475 182 C-476.24 180.81 -476.24 180.81 -477.5 179.61 C-486.06 170.69 -490 154.13 -490 142 C-489.34 142 -488.68 142 -488 142 C-488.03 141.18 -488.07 140.36 -488.11 139.52 C-488.13 138.44 -488.16 137.36 -488.19 136.25 C-488.22 135.18 -488.26 134.12 -488.29 133.02 C-487.96 129.61 -487.16 128.56 -485 126 C-484.09 123.86 -484.09 123.86 -483.44 121.62 C-483.19 120.85 -482.95 120.07 -482.7 119.26 C-482.47 118.52 -482.24 117.77 -482 117 C-481.33 115 -480.67 113 -480 111 C-480.6 110.82 -481.21 110.64 -481.83 110.45 C-489.77 107.95 -489.77 107.95 -493 105 C-488.85 105.67 -485.17 107.02 -481.28 108.57 C-478.2 109.15 -476.76 108.45 -474 107 C-472.38 105.78 -470.79 104.51 -469.25 103.19 C-456.66 92.92 -444.92 90.42 -429 91 C-429.21 89.74 -429.41 88.48 -429.62 87.19 C-430.21 83.6 -430.17 83.25 -428 80 C-424.96 81.17 -423.26 82.75 -421.12 85.12 C-418.87 87.44 -418.23 87.95 -414.94 88.62 C-411.39 87.87 -409.68 86.38 -407 84 C-406.34 84 -405.68 84 -405 84 C-405.33 82.68 -405.66 81.36 -406 80 C-404.39 80.09 -402.79 80.2 -401.19 80.31 C-400.29 80.37 -399.4 80.43 -398.48 80.49 C-395.69 81.06 -394.76 81.82 -393 84 C-393.99 84.66 -394.98 85.32 -396 86 C-396.69 87.99 -396.69 87.99 -397 90.25 C-397.76 94.24 -398.99 97.44 -401 101 C-400.41 101.27 -399.82 101.53 -399.21 101.8 C-392.69 105.33 -388.55 111.69 -385 118 C-385.99 119.32 -386.98 120.64 -388 122 C-387.34 123.32 -386.68 124.64 -386 126 C-385.34 126 -384.68 126 -384 126 C-383.48 124.96 -382.96 123.93 -382.43 122.86 C-381.72 121.49 -381.02 120.12 -380.31 118.75 C-379.97 118.07 -379.63 117.39 -379.28 116.68 C-376.56 111.44 -373.82 107.94 -368 106 C-358.49 105.53 -348.88 106.1 -339.38 106.44 C-338.24 106.48 -337.1 106.52 -335.93 106.56 C-334.84 106.6 -333.76 106.64 -332.65 106.68 C-331.68 106.72 -330.71 106.76 -329.72 106.79 C-327 107 -327 107 -324.3 107.57 C-321.28 108.13 -319.79 107.22 -317 106 C-312.25 104.85 -307.68 104.38 -303 106 C-296.8 109.91 -291.85 115.56 -287 121 C-286.51 121.55 -286.02 122.1 -285.52 122.66 C-282.87 125.68 -280.41 128.8 -278 132 C-277.43 132.71 -276.86 133.41 -276.27 134.14 C-269.52 142.62 -267.48 149.3 -268.06 160.06 C-268.26 164.6 -267.86 166.55 -265 170 C-263.54 178.53 -265.69 185.37 -268.82 193.21 C-270.93 199.99 -270.91 206.95 -271 214 C-270.01 214 -269.02 214 -268 214 C-267.73 213.26 -267.45 212.52 -267.17 211.76 C-266.07 209.17 -264.86 207.16 -263.25 204.88 C-259.78 199.77 -256.88 194.46 -254 189 C-253.19 187.49 -252.38 185.97 -251.57 184.46 C-245.1 172.31 -239.29 160.43 -235.11 147.29 C-234 144 -234 144 -232.88 142.02 C-230.55 136.68 -230.96 127.93 -232.9 122.46 C-234.05 120.38 -234.05 120.38 -236 118 C-226.85 113.33 -217.62 108.96 -208.19 104.88 C-206.84 104.29 -205.5 103.71 -204.16 103.12 C-189.07 96.56 -173.95 90.1 -158.82 83.64 C-146.03 78.17 -133.25 72.65 -120.49 67.09 C-114.81 64.61 -109.12 62.15 -103.44 59.69 C-102.17 59.14 -100.9 58.59 -99.64 58.04 C-97.68 57.19 -95.73 56.35 -93.77 55.5 C-89.42 53.62 -85.07 51.73 -80.72 49.84 C-78.92 49.06 -78.92 49.06 -77.09 48.27 C-74.65 47.21 -72.22 46.16 -69.79 45.1 C-63.47 42.35 -57.14 39.63 -50.78 36.96 C-47.44 35.56 -44.1 34.14 -40.77 32.72 C-39.16 32.04 -37.54 31.37 -35.93 30.7 C-21.59 24.75 -7.64 17.96 -1.06 2.94 C-0.71 1.97 -0.36 1 0 0 Z M-403 184 C-402 187 -402 187 -402 187 Z M-454 195 C-450 196 -450 196 -450 196 Z M-422 195 C-418 196 -418 196 -418 196 Z M-450 196 C-446 197 -446 197 -446 197 Z M-426 196 C-422 197 -422 197 -422 197 Z M-446 197 C-446 197.33 -446 197.66 -446 198 C-439.4 198 -432.8 198 -426 198 C-426 197.67 -426 197.34 -426 197 C-432.6 197 -439.2 197 -446 197 Z M-294 223 C-294.99 224.49 -294.99 224.49 -296 226 C-295.01 225.67 -294.02 225.34 -293 225 C-293.33 224.34 -293.66 223.68 -294 223 Z M-300 230 C-299 232 -299 232 -299 232 Z M-301 232 C-300 234 -300 234 -300 234 Z M-364 236 C-364.66 236.66 -365.32 237.32 -366 238 C-364.68 237.67 -363.36 237.34 -362 237 C-362.66 236.67 -363.32 236.34 -364 236 Z M-382 240 C-382 240.33 -382 240.66 -382 241 C-378.7 241 -375.4 241 -372 241 C-372 240.67 -372 240.34 -372 240 C-375.3 240 -378.6 240 -382 240 Z M-353 242 C-353 242.33 -353 242.66 -353 243 C-345.08 243 -337.16 243 -329 243 C-329 242.67 -329 242.34 -329 242 C-336.92 242 -344.84 242 -353 242 Z M-310 243 C-310.33 243.66 -310.66 244.32 -311 245 C-310.01 244.67 -309.02 244.34 -308 244 C-308.66 243.67 -309.32 243.34 -310 243 Z M-319 246 C-319 246.33 -319 246.66 -319 247 C-317.02 247 -315.04 247 -313 247 C-313 246.67 -313 246.34 -313 246 C-314.98 246 -316.96 246 -319 246 Z " fill="#D0DBC2" transform="translate(961,669)"/>
<path d="M0 0 C2.16 4.04 2.46 8.47 3 13 C3.54 13.17 4.09 13.34 4.64 13.52 C5.36 13.76 6.08 14 6.81 14.25 C7.87 14.6 7.87 14.6 8.96 14.95 C11.52 16.27 12.55 17.52 14 20 C14.92 24.2 14.86 28.26 12.93 32.15 C11.41 34.25 9.78 36.11 8 38 C7.44 38.63 6.89 39.27 6.31 39.92 C2.18 44.38 -2.46 47.96 -7.38 51.5 C-7.99 51.95 -8.61 52.39 -9.25 52.85 C-13.74 56 -13.74 56 -16 56 C-15.57 56.63 -15.13 57.26 -14.69 57.91 C-9.85 65.68 -8.63 71.95 -10 81 C-12.12 89.8 -15.31 98.39 -19.61 106.35 C-20.71 108.45 -21.72 110.55 -22.7 112.71 C-29.56 127.84 -37.87 142.13 -47 156 C-47.66 155.67 -48.32 155.34 -49 155 C-49.58 145.07 -48.9 137.76 -45.12 128.4 C-43.35 123.03 -43.05 117.58 -44 112 C-44.51 111.38 -45.02 110.77 -45.54 110.13 C-47.74 106.91 -47.05 103.73 -46.81 100 C-46.43 85.54 -54.36 76.73 -63.63 66.52 C-65.36 64.6 -67.02 62.61 -68.69 60.62 C-69.79 59.41 -70.89 58.2 -72 57 C-72.64 56.25 -73.27 55.51 -73.93 54.74 C-77.29 51.21 -79.6 49.23 -84.51 48.43 C-91.22 48.32 -91.22 48.32 -97.61 50.1 C-100.57 51.22 -101.93 50.65 -105 50 C-106.88 49.86 -108.76 49.75 -110.65 49.68 C-112.27 49.62 -112.27 49.62 -113.92 49.56 C-115.06 49.52 -116.2 49.48 -117.38 49.44 C-118.54 49.4 -119.7 49.36 -120.9 49.32 C-124.27 49.2 -127.63 49.1 -131 49 C-132.28 48.95 -132.28 48.95 -133.58 48.91 C-135.64 48.84 -137.69 48.79 -139.75 48.75 C-140.84 48.72 -141.93 48.7 -143.05 48.67 C-147.29 49.14 -150.66 50.46 -153.5 53.73 C-153.85 54.35 -154.2 54.98 -154.56 55.62 C-154.96 56.32 -155.36 57.01 -155.77 57.73 C-156.17 58.48 -156.58 59.23 -157 60 C-157.47 60.83 -157.94 61.67 -158.42 62.52 C-159.63 64.67 -160.82 66.83 -162 69 C-163.49 68.5 -163.49 68.5 -165 68 C-166.19 65.44 -166.19 65.44 -167 63 C-166.01 62.01 -165.02 61.02 -164 60 C-170.04 50.08 -170.04 50.08 -179 43 C-178.81 42.43 -178.61 41.86 -178.41 41.28 C-176.82 36.55 -175.33 31.81 -174 27 C-170.09 25.94 -167.75 26.11 -163.94 27.44 C-160.58 28.59 -158.65 29 -155 29 C-155 29.66 -155 30.32 -155 31 C-152.69 31 -150.38 31 -148 31 C-148 31.66 -148 32.32 -148 33 C-147.32 33.11 -146.64 33.22 -145.95 33.33 C-140.2 34.31 -134.79 35.57 -129.29 37.51 C-124.52 38.53 -119.86 36.41 -115.31 35 C-114.17 34.65 -113.04 34.3 -111.86 33.94 C-109.09 33.11 -109.09 33.11 -107 32 C-106.34 32.33 -105.68 32.66 -105 33 C-105 32.34 -105 31.68 -105 31 C-103.39 30.81 -103.39 30.81 -101.75 30.62 C-98.56 30.09 -96.73 29.56 -94 28 C-90.8 26.93 -88.34 26.93 -85 27 C-85 26.34 -85 25.68 -85 25 C-84.07 24.9 -83.14 24.79 -82.19 24.69 C-77.04 23.95 -71.89 22.77 -67 21 C-66.67 20.34 -66.34 19.68 -66 19 C-63.68 18.61 -61.38 18.49 -59.03 18.34 C-58.36 18.23 -57.69 18.12 -57 18 C-56.67 17.34 -56.34 16.68 -56 16 C-54.02 16 -52.04 16 -50 16 C-49.67 15.34 -49.34 14.68 -49 14 C-47.26 13.07 -47.26 13.07 -45.12 12.12 C-41.77 10.52 -40.04 9.17 -38 6 C-34.84 3.06 -32.32 2.16 -28 2 C-26.53 2.58 -25.07 3.18 -23.62 3.81 C-21.36 4.78 -21.36 4.78 -19 5 C-16.52 3.79 -14.76 2.37 -12.73 0.52 C-8.75 -2.98 -4.48 -2.11 0 0 Z M-40 11 C-40.33 11.66 -40.66 12.32 -41 13 C-40.34 13 -39.68 13 -39 13 C-39.33 12.34 -39.66 11.68 -40 11 Z " fill="#9B8E35" transform="translate(739,727)"/>
<path d="M0 0 C3.04 1.17 4.74 2.75 6.88 5.12 C9.13 7.44 9.77 7.95 13.06 8.62 C16.61 7.87 18.32 6.38 21 4 C21.66 4 22.32 4 23 4 C22.5 2.02 22.5 2.02 22 0 C23.61 0.09 25.21 0.2 26.81 0.31 C27.71 0.37 28.6 0.43 29.52 0.49 C32.31 1.06 33.24 1.82 35 4 C34.01 4.66 33.02 5.32 32 6 C31.31 7.99 31.31 7.99 31 10.25 C30.24 14.24 29.01 17.44 27 21 C27.59 21.27 28.18 21.53 28.79 21.8 C35.31 25.33 39.45 31.69 43 38 C42.01 39.32 41.02 40.64 40 42 C40.99 44.31 41.98 46.62 43 49 C41.29 52 39.54 54.64 37 57 C34.7 57.4 32.76 57.19 30.44 56.98 C25.67 57.02 21.8 59.26 18 62 C13.54 66.79 12.32 71.59 12 78 C11.9 78.83 11.79 79.65 11.69 80.5 C12.51 87.06 16.34 91.58 21 96 C22.01 97.66 23.01 99.33 24 101 C25.49 101.99 25.49 101.99 27 103 C27.48 105.4 27.48 105.4 27 108 C16.66 117.79 3.15 119.64 -10.42 119.54 C-23.59 119.11 -34.05 114.85 -44 106 C-45.02 104.68 -46.02 103.35 -47 102 C-48.24 100.81 -48.24 100.81 -49.5 99.61 C-58.06 90.69 -62 74.13 -62 62 C-61.34 62 -60.68 62 -60 62 C-60.03 61.18 -60.07 60.36 -60.11 59.52 C-60.13 58.44 -60.16 57.36 -60.19 56.25 C-60.22 55.18 -60.26 54.12 -60.29 53.02 C-59.96 49.61 -59.16 48.56 -57 46 C-56.09 43.86 -56.09 43.86 -55.44 41.62 C-55.19 40.85 -54.95 40.07 -54.7 39.26 C-54.47 38.52 -54.24 37.77 -54 37 C-53.33 35 -52.67 33 -52 31 C-52.6 30.82 -53.21 30.64 -53.83 30.45 C-61.77 27.95 -61.77 27.95 -65 25 C-60.85 25.67 -57.17 27.02 -53.28 28.57 C-50.2 29.15 -48.76 28.45 -46 27 C-44.38 25.78 -42.79 24.51 -41.25 23.19 C-28.66 12.92 -16.92 10.42 -1 11 C-1.21 9.74 -1.41 8.48 -1.62 7.19 C-2.21 3.6 -2.17 3.25 0 0 Z M25 104 C26 107 26 107 26 107 Z M-26 115 C-22 116 -22 116 -22 116 Z M6 115 C10 116 10 116 10 116 Z M-22 116 C-18 117 -18 117 -18 117 Z M2 116 C6 117 6 117 6 117 Z M-18 117 C-18 117.33 -18 117.66 -18 118 C-11.4 118 -4.8 118 2 118 C2 117.67 2 117.34 2 117 C-4.6 117 -11.2 117 -18 117 Z " fill="#9B8F36" transform="translate(533,749)"/>
<path d="M0 0 C1.18 -0.01 2.36 -0.02 3.58 -0.03 C4.87 -0.03 6.17 -0.04 7.5 -0.04 C8.83 -0.05 10.17 -0.05 11.51 -0.06 C14.32 -0.07 17.14 -0.08 19.96 -0.08 C23.53 -0.08 27.11 -0.11 30.68 -0.14 C33.45 -0.16 36.22 -0.16 38.99 -0.16 C40.94 -0.17 42.89 -0.19 44.84 -0.2 C52.82 -0.18 59.85 0.85 67.48 3.16 C68.59 3.48 68.59 3.48 69.73 3.81 C80.3 6.97 89.78 15.67 95.16 25.12 C101.9 38.24 104.3 52.33 99.91 66.79 C95.03 78.96 86.15 88.52 74.77 94.84 C72.53 96.13 70.54 97.59 68.48 99.16 C69.15 100.12 69.15 100.12 69.83 101.1 C71.91 104.05 73.97 107.01 76.04 109.97 C76.74 110.98 77.45 111.98 78.17 113.02 C82.22 118.82 86.13 124.68 89.85 130.7 C91.48 133.26 91.48 133.26 93.68 135.85 C95.48 138.16 95.48 138.16 95.48 140.16 C96.14 140.16 96.8 140.16 97.48 140.16 C98.8 142.47 100.12 144.78 101.48 147.16 C99.07 149.57 93.1 148.65 89.85 148.79 C88.87 148.84 87.88 148.89 86.86 148.94 C76.36 149.42 76.36 149.42 71.48 148.16 C69.84 146.45 69.84 146.45 68.79 144.35 C67.56 141.96 66.56 140.24 64.62 138.36 C61.81 135.48 59.92 132.28 57.85 128.85 C54.35 123.13 50.77 117.48 47.04 111.91 C46.63 111.29 46.21 110.67 45.79 110.03 C43.76 107.01 41.67 104.08 39.48 101.16 C32.55 100.83 25.62 100.5 18.48 100.16 C18.48 115.67 18.48 131.18 18.48 147.16 C17.49 146.83 16.5 146.5 15.48 146.16 C13.85 146.15 12.22 146.19 10.59 146.28 C9.65 146.33 8.71 146.38 7.75 146.43 C6.77 146.48 5.8 146.54 4.79 146.6 C3.8 146.65 2.81 146.7 1.8 146.76 C-0.64 146.89 -3.08 147.02 -5.52 147.16 C-6.38 143.45 -6.65 140.02 -6.65 136.21 C-6.65 135.02 -6.66 133.83 -6.66 132.6 C-6.66 131.3 -6.65 130 -6.65 128.67 C-6.65 127.28 -6.66 125.89 -6.66 124.5 C-6.66 120.74 -6.66 116.98 -6.66 113.22 C-6.65 109.28 -6.66 105.34 -6.66 101.41 C-6.66 94.81 -6.66 88.2 -6.65 81.6 C-6.65 73.95 -6.65 66.31 -6.65 58.66 C-6.66 52.1 -6.66 45.55 -6.66 38.99 C-6.66 35.07 -6.66 31.15 -6.66 27.23 C-6.66 23.55 -6.66 19.87 -6.65 16.19 C-6.65 14.18 -6.66 12.18 -6.66 10.18 C-6.66 9 -6.65 7.82 -6.65 6.6 C-6.65 5.57 -6.65 4.54 -6.65 3.47 C-6.41 -0.96 -3.86 0.03 0 0 Z M16.48 12.16 C16.48 12.49 16.48 12.82 16.48 13.16 C26.71 13.16 36.94 13.16 47.48 13.16 C47.48 12.83 47.48 12.5 47.48 12.16 C37.25 12.16 27.02 12.16 16.48 12.16 Z M15.48 13.16 C16.48 15.16 16.48 15.16 16.48 15.16 Z M17.48 14.16 C17.48 37.92 17.48 61.68 17.48 86.16 C44.72 88.62 44.72 88.62 55.48 85.16 C55.81 84.5 56.14 83.84 56.48 83.16 C57.47 83.16 58.46 83.16 59.48 83.16 C60.14 82.5 60.8 81.84 61.48 81.16 C62.36 80.65 63.25 80.13 64.16 79.6 C69.95 75.82 74.29 69.65 76.48 63.16 C76.92 60.96 76.92 60.96 77.1 58.85 C77.29 57.02 77.29 57.02 77.48 55.16 C77.81 55.16 78.14 55.16 78.48 55.16 C79.07 42.91 75.4 34.33 67.66 24.96 C61.88 18.64 55.66 16.21 47.48 14.16 C37.58 14.16 27.68 14.16 17.48 14.16 Z M89.48 19.16 C90.48 21.16 90.48 21.16 90.48 21.16 Z M15.48 28.16 C15.48 47.63 15.48 67.1 15.48 87.16 C15.81 87.16 16.14 87.16 16.48 87.16 C16.48 67.69 16.48 48.22 16.48 28.16 C16.15 28.16 15.82 28.16 15.48 28.16 Z M95.48 29.16 C96.48 32.16 96.48 32.16 96.48 32.16 Z M96.48 32.16 C97.48 34.16 97.48 34.16 97.48 34.16 Z M97.48 35.16 C98.48 39.16 98.48 39.16 98.48 39.16 Z M98.48 39.16 C98.48 41.8 98.48 44.44 98.48 47.16 C98.81 47.16 99.14 47.16 99.48 47.16 C99.48 44.52 99.48 41.88 99.48 39.16 C99.15 39.16 98.82 39.16 98.48 39.16 Z M98.48 49.16 C98.48 53.12 98.48 57.08 98.48 61.16 C98.81 61.16 99.14 61.16 99.48 61.16 C99.48 57.2 99.48 53.24 99.48 49.16 C99.15 49.16 98.82 49.16 98.48 49.16 Z M97.48 61.16 C98.48 65.16 98.48 65.16 98.48 65.16 Z M96.48 65.16 C97.48 67.16 97.48 67.16 97.48 67.16 Z M95.48 67.16 C96.48 70.16 96.48 70.16 96.48 70.16 Z M94.48 70.16 C95.48 72.16 95.48 72.16 95.48 72.16 Z M93.48 72.16 C93.48 75.16 93.48 75.16 93.48 75.16 Z M91.48 75.16 C91.48 78.16 91.48 78.16 91.48 78.16 Z M89.48 78.16 C86.84 80.8 84.2 83.44 81.48 86.16 C84.44 86.48 84.44 86.48 86.08 84.85 C86.6 84.29 87.13 83.73 87.66 83.16 C88.19 82.6 88.72 82.05 89.27 81.47 C89.67 81.04 90.07 80.61 90.48 80.16 C90.15 79.5 89.82 78.84 89.48 78.16 Z M78.48 88.16 C78.15 88.82 77.82 89.48 77.48 90.16 C78.47 89.83 79.46 89.5 80.48 89.16 C79.82 88.83 79.16 88.5 78.48 88.16 Z M75.48 90.16 C75.15 90.82 74.82 91.48 74.48 92.16 C75.47 91.83 76.46 91.5 77.48 91.16 C76.82 90.83 76.16 90.5 75.48 90.16 Z M16.48 99.16 C16.48 110.38 16.48 121.6 16.48 133.16 C16.81 133.16 17.14 133.16 17.48 133.16 C17.48 121.94 17.48 110.72 17.48 99.16 C17.15 99.16 16.82 99.16 16.48 99.16 Z M15.48 136.16 C16.48 138.16 16.48 138.16 16.48 138.16 Z M72.48 146.16 C72.48 146.49 72.48 146.82 72.48 147.16 C74.13 147.16 75.78 147.16 77.48 147.16 C77.48 146.83 77.48 146.5 77.48 146.16 C75.83 146.16 74.18 146.16 72.48 146.16 Z M97.48 144.16 C97.48 144.82 97.48 145.48 97.48 146.16 C91.21 146.16 84.94 146.16 78.48 146.16 C78.48 146.49 78.48 146.82 78.48 147.16 C85.08 147.16 91.68 147.16 98.48 147.16 C98.15 146.17 97.82 145.18 97.48 144.16 Z " fill="#9E923C" transform="translate(489.522705078125,499.8388671875)"/>
<path d="M0 0 C1.22 -0.02 2.43 -0.04 3.69 -0.06 C4.71 -0.08 4.71 -0.08 5.76 -0.1 C8 0 8 0 10.29 0.49 C13.1 1.02 15.75 1.19 18.61 1.28 C20.21 1.34 20.21 1.34 21.84 1.39 C22.94 1.43 24.05 1.46 25.19 1.5 C45.96 2.17 45.96 2.17 53.38 4.31 C54.73 4.7 54.73 4.7 56.11 5.1 C60.3 6.41 64.44 7.85 68.57 9.33 C70.98 10.29 70.98 10.29 73 9 C73.4 9.44 73.8 9.88 74.21 10.34 C76.2 12.19 78.18 13.32 80.56 14.62 C95.4 23.48 103.08 35.55 107.31 51.94 C107.54 52.95 107.76 53.96 108 55 C108.26 56.13 108.26 56.13 108.53 57.28 C111.08 71.99 110.69 91.22 105 105 C104.35 106.58 104.35 106.58 103.68 108.2 C97.42 121.84 85.81 136.19 71.54 141.95 C69.91 142.55 68.27 143.13 66.62 143.69 C65.31 144.14 65.31 144.14 63.97 144.6 C51.71 148.61 40.32 149.39 27.49 148.29 C18.36 147.59 9.15 147.92 0 148 C-1.25 145.5 -0.92 144.33 -0.56 141.58 C0.07 135.93 0.1 130.39 0.02 124.72 C0.01 123.64 0 122.55 -0.01 121.44 C-0.04 117.89 -0.08 114.34 -0.12 110.79 C-0.15 108.3 -0.17 105.8 -0.19 103.31 C-0.25 97.42 -0.31 91.53 -0.37 85.64 C-0.47 77.06 -0.55 68.48 -0.63 59.9 C-0.69 53.73 -0.76 47.56 -0.82 41.39 C-0.89 34.93 -0.95 28.46 -1 22 C-1.01 20.99 -1.02 19.99 -1.03 18.95 C-1.05 16.12 -1.07 13.29 -1.08 10.47 C-1.09 9.63 -1.09 8.8 -1.1 7.93 C-1.12 2.23 -1.12 2.23 0 0 Z M23 11 C23 11.33 23 11.66 23 12 C26.96 12 30.92 12 35 12 C35 11.67 35 11.34 35 11 C31.04 11 27.08 11 23 11 Z M21 13 C22 15 22 15 22 15 Z M23 13 C23 54.58 23 96.16 23 139 C36.86 140.07 47.92 138.99 59 130 C59.7 128.68 60.37 127.35 61 126 C61.96 125.78 61.96 125.78 62.94 125.56 C65.99 124.73 66.45 122.65 68 120 C70.12 118.81 70.12 118.81 72 118 C72.33 117.34 72.66 116.68 73 116 C73.64 115.07 74.28 114.14 74.94 113.19 C76.71 110.44 77.88 108.04 79 105 C79.67 103.67 80.33 102.33 81 101 C87.53 86.71 87.38 66.74 82.34 52.05 C79.16 44.81 75.25 37.95 70 32 C69.34 32 68.68 32 68 32 C68 31.34 68 30.68 68 30 C66.38 28.29 64.71 26.63 63 25 C62.34 24.34 61.68 23.68 61 23 C60.34 22.67 59.68 22.34 59 22 C57 21 57 21 55 19 C53.85 18.69 52.69 18.38 51.5 18.06 C48 17 48 17 46 14 C42.54 13.83 42.54 13.83 39 14 C38.01 13.67 37.02 13.34 36 13 C31.71 13 27.42 13 23 13 Z M0 23 C0 29.27 0 35.54 0 42 C0.33 42 0.66 42 1 42 C1 35.73 1 29.46 1 23 C0.67 23 0.34 23 0 23 Z M103 45 C104 48 104 48 104 48 Z M104 49 C105 53 105 53 105 53 Z M105 53 C105 54.65 105 56.3 105 58 C105.33 58 105.66 58 106 58 C106 56.35 106 54.7 106 53 C105.67 53 105.34 53 105 53 Z M106 58 C106 61.96 106 65.92 106 70 C106.33 70 106.66 70 107 70 C107 66.04 107 62.08 107 58 C106.67 58 106.34 58 106 58 Z M106 78 C106 81.96 106 85.92 106 90 C106.33 90 106.66 90 107 90 C107 86.04 107 82.08 107 78 C106.67 78 106.34 78 106 78 Z M105 90 C105 91.65 105 93.3 105 95 C105.33 95 105.66 95 106 95 C106 93.35 106 91.7 106 90 C105.67 90 105.34 90 105 90 Z M104 95 C105 99 105 99 105 99 Z M103 99 C104 102 104 102 104 102 Z M102 102 C103 105 103 105 103 105 Z M101 105 C100.67 106.32 100.34 107.64 100 109 C100.66 108.67 101.32 108.34 102 108 C101.67 107.01 101.34 106.02 101 105 Z M99 109 C98.67 110.32 98.34 111.64 98 113 C98.66 112.67 99.32 112.34 100 112 C99.67 111.01 99.34 110.02 99 109 Z M97 113 C97 116 97 116 97 116 Z M95 116 C96 118 96 118 96 118 Z M94 118 C94 121 94 121 94 121 Z M91 122 C89.51 123.98 89.51 123.98 88 126 C89.32 125.34 90.64 124.68 92 124 C91.67 123.34 91.34 122.68 91 122 Z M87 126 C85.68 127.65 84.36 129.3 83 131 C84.32 130.34 85.64 129.68 87 129 C87 128.01 87 127.02 87 126 Z M81 131 C80.01 132.49 80.01 132.49 79 134 C80.32 133.34 81.64 132.68 83 132 C82.34 131.67 81.68 131.34 81 131 Z M76 135 C75.67 135.66 75.34 136.32 75 137 C75.99 136.67 76.98 136.34 78 136 C77.34 135.67 76.68 135.34 76 135 Z M51 145 C55 146 55 146 55 146 Z " fill="#9D913A" transform="translate(637,499)"/>
<path d="M0 0 C1.48 0.02 1.48 0.02 2.99 0.03 C4.6 0.06 4.6 0.06 6.24 0.08 C7.91 0.11 7.91 0.11 9.61 0.13 C11.97 0.17 14.34 0.21 16.7 0.26 C20.26 0.32 23.83 0.36 27.39 0.4 C49.62 0.74 73.23 1.89 90.3 17.98 C94.56 22.51 97.25 27.21 99.27 33.07 C99.49 33.72 99.72 34.37 99.95 35.04 C103.34 47.15 102.43 62.44 96.98 73.75 C91.37 83.63 84.48 90.89 74.27 96.07 C73.61 96.43 72.95 96.78 72.27 97.15 C62.22 101.75 50.87 100.49 40.08 100.32 C32.88 100.24 25.69 100.15 18.27 100.07 C17.94 115.91 17.61 131.75 17.27 148.07 C16.61 147.74 15.95 147.41 15.27 147.07 C13.67 147.05 12.07 147.1 10.48 147.19 C9.07 147.26 9.07 147.26 7.63 147.34 C6.64 147.39 5.66 147.45 4.64 147.51 C3.65 147.56 2.66 147.61 1.64 147.67 C-0.82 147.79 -3.28 147.93 -5.73 148.07 C-6.47 138.44 -6.87 128.91 -6.84 119.25 C-6.84 117.96 -6.84 116.67 -6.84 115.34 C-6.84 111.86 -6.84 108.38 -6.83 104.89 C-6.83 101.23 -6.83 97.57 -6.82 93.92 C-6.82 87.01 -6.81 80.1 -6.8 73.2 C-6.79 65.33 -6.79 57.45 -6.78 49.58 C-6.77 33.41 -6.75 17.24 -6.73 1.07 C-4.28 -0.16 -2.74 -0.03 0 0 Z M25.27 12.07 C29.27 13.07 29.27 13.07 29.27 13.07 Z M39.27 13.07 C39.27 13.4 39.27 13.73 39.27 14.07 C42.57 14.07 45.87 14.07 49.27 14.07 C49.27 13.74 49.27 13.41 49.27 13.07 C45.97 13.07 42.67 13.07 39.27 13.07 Z M15.27 15.07 C15.27 17.05 15.27 19.03 15.27 21.07 C15.6 21.07 15.93 21.07 16.27 21.07 C16.27 19.09 16.27 17.11 16.27 15.07 C15.94 15.07 15.61 15.07 15.27 15.07 Z M18.27 15.07 C16.83 17.95 17.15 20.41 17.16 23.63 C17.16 24.3 17.16 24.98 17.16 25.67 C17.16 27.9 17.16 30.13 17.17 32.36 C17.17 33.9 17.17 35.45 17.18 36.99 C17.18 41.06 17.19 45.13 17.2 49.19 C17.21 53.34 17.22 57.49 17.22 61.64 C17.23 69.78 17.25 77.93 17.27 86.07 C22.12 87.58 25.29 88.28 30.27 87.07 C30.27 87.4 30.27 87.73 30.27 88.07 C32.71 88.1 35.14 88.12 37.58 88.13 C38.62 88.14 38.62 88.14 39.67 88.16 C42.82 88.17 45.26 88.07 48.27 87.07 C49.2 86.95 50.13 86.82 51.08 86.69 C58.39 85.26 63.73 80.75 69.27 76.07 C68.94 75.08 68.61 74.09 68.27 73.07 C70.25 72.57 70.25 72.57 72.27 72.07 C72.6 70.42 72.93 68.77 73.27 67.07 C73.93 67.07 74.59 67.07 75.27 67.07 C75.4 66.43 75.53 65.79 75.67 65.14 C75.85 64.31 76.02 63.48 76.21 62.63 C76.38 61.81 76.55 60.98 76.73 60.14 C77.27 58.07 77.27 58.07 78.27 57.07 C79.35 45.6 76.58 35.97 69.27 27.07 C62.83 20.19 54.64 15.29 45.06 14.96 C43.21 14.96 43.21 14.96 41.32 14.97 C40.66 14.97 40 14.97 39.32 14.98 C37.22 14.98 35.12 14.99 33.02 15.01 C31.59 15.01 30.17 15.02 28.74 15.02 C25.25 15.03 21.76 15.05 18.27 15.07 Z M15.27 22.07 C16.27 25.07 16.27 25.07 16.27 25.07 Z M94.27 27.07 C95.27 29.07 95.27 29.07 95.27 29.07 Z M95.27 29.07 C96.27 31.07 96.27 31.07 96.27 31.07 Z M96.27 32.07 C97.27 35.07 97.27 35.07 97.27 35.07 Z M97.27 35.07 C98.27 39.07 98.27 39.07 98.27 39.07 Z M98.27 39.07 C98.27 42.04 98.27 45.01 98.27 48.07 C98.6 48.07 98.93 48.07 99.27 48.07 C99.27 45.1 99.27 42.13 99.27 39.07 C98.94 39.07 98.61 39.07 98.27 39.07 Z M98.27 51.07 C98.27 54.37 98.27 57.67 98.27 61.07 C98.6 61.07 98.93 61.07 99.27 61.07 C99.27 57.77 99.27 54.47 99.27 51.07 C98.94 51.07 98.61 51.07 98.27 51.07 Z M97.27 61.07 C98.27 64.07 98.27 64.07 98.27 64.07 Z M95.27 67.07 C96.27 70.07 96.27 70.07 96.27 70.07 Z M15.27 68.07 C16.27 70.07 16.27 70.07 16.27 70.07 Z M94.27 70.07 C95.27 72.07 95.27 72.07 95.27 72.07 Z M93.27 72.07 C94.27 74.07 94.27 74.07 94.27 74.07 Z M15.27 73.07 C15.27 77.69 15.27 82.31 15.27 87.07 C15.6 87.07 15.93 87.07 16.27 87.07 C16.27 82.45 16.27 77.83 16.27 73.07 C15.94 73.07 15.61 73.07 15.27 73.07 Z M92.27 74.07 C93.27 76.07 93.27 76.07 93.27 76.07 Z M91.27 76.07 C91.27 79.07 91.27 79.07 91.27 79.07 Z M89.27 79.07 C87.95 80.39 86.63 81.71 85.27 83.07 C85.6 83.73 85.93 84.39 86.27 85.07 C87.59 83.75 88.91 82.43 90.27 81.07 C89.94 80.41 89.61 79.75 89.27 79.07 Z M82.27 86.07 C81.28 87.55 81.28 87.55 80.27 89.07 C81.59 88.41 82.91 87.75 84.27 87.07 C83.61 86.74 82.95 86.41 82.27 86.07 Z M78.27 89.07 C77.28 90.55 77.28 90.55 76.27 92.07 C77.59 91.41 78.91 90.75 80.27 90.07 C79.61 89.74 78.95 89.41 78.27 89.07 Z M58.27 97.07 C58.27 97.4 58.27 97.73 58.27 98.07 C60.25 98.07 62.23 98.07 64.27 98.07 C64.27 97.74 64.27 97.41 64.27 97.07 C62.29 97.07 60.31 97.07 58.27 97.07 Z M18.27 98.07 C18.27 98.4 18.27 98.73 18.27 99.07 C20.91 99.07 23.55 99.07 26.27 99.07 C26.27 98.74 26.27 98.41 26.27 98.07 C23.63 98.07 20.99 98.07 18.27 98.07 Z M42.27 98.07 C42.27 98.4 42.27 98.73 42.27 99.07 C44.25 99.07 46.23 99.07 48.27 99.07 C48.27 98.74 48.27 98.41 48.27 98.07 C46.29 98.07 44.31 98.07 42.27 98.07 Z M49.27 98.07 C49.27 98.4 49.27 98.73 49.27 99.07 C52.24 99.07 55.21 99.07 58.27 99.07 C58.27 98.74 58.27 98.41 58.27 98.07 C55.3 98.07 52.33 98.07 49.27 98.07 Z M15.27 101.07 C16.27 104.07 16.27 104.07 16.27 104.07 Z M15.27 105.07 C15.27 107.38 15.27 109.69 15.27 112.07 C15.6 112.07 15.93 112.07 16.27 112.07 C16.27 109.76 16.27 107.45 16.27 105.07 C15.94 105.07 15.61 105.07 15.27 105.07 Z M15.27 122.07 C16.27 124.07 16.27 124.07 16.27 124.07 Z M15.27 134.07 C16.27 136.07 16.27 136.07 16.27 136.07 Z " fill="#9C9038" transform="translate(372.730712890625,498.9306640625)"/>
<path d="M0 0 C1.17 -0.01 2.35 -0.03 3.56 -0.04 C6.98 0.22 7.26 0.89 9.56 3.19 C10.49 5.56 11.38 7.93 12.25 10.33 C12.51 11.05 12.78 11.77 13.05 12.51 C13.6 14.03 14.16 15.56 14.71 17.09 C15.55 19.42 16.41 21.74 17.26 24.07 C17.8 25.55 18.34 27.03 18.88 28.52 C19.13 29.21 19.38 29.9 19.65 30.62 C20.91 34.12 21.91 37.52 22.56 41.19 C23.46 44.32 23.46 44.32 25.56 47.19 C26.13 48.48 26.66 49.79 27.17 51.1 C27.62 52.28 27.62 52.28 28.08 53.47 C28.55 54.73 28.55 54.73 29.04 56.02 C29.37 56.89 29.7 57.76 30.04 58.65 C30.74 60.49 31.43 62.33 32.12 64.17 C33.18 66.98 34.25 69.79 35.33 72.59 C36 74.38 36.68 76.17 37.35 77.96 C37.83 79.21 37.83 79.21 38.33 80.49 C39.99 84.96 40.71 88.36 40.56 93.19 C41.22 93.85 41.88 94.51 42.56 95.19 C44.21 97.66 45.13 99.46 46.12 102.2 C46.55 103.4 46.55 103.4 47 104.62 C47.31 105.49 47.62 106.35 47.93 107.24 C48.26 108.13 48.58 109.02 48.91 109.94 C49.95 112.79 50.97 115.65 52 118.5 C53.35 122.25 54.7 125.99 56.06 129.74 C56.36 130.59 56.67 131.45 56.99 132.33 C58.6 136.79 60.42 140.96 62.56 145.19 C62.56 145.85 62.56 146.51 62.56 147.19 C59.35 148.79 56.13 148.24 52.56 148.19 C52.56 147.86 52.56 147.53 52.56 147.19 C50.81 147.16 49.06 147.14 47.31 147.12 C46.34 147.11 45.36 147.1 44.36 147.09 C41.9 147.18 39.9 147.48 37.56 148.19 C34.69 143.82 32.9 139.24 31.06 134.38 C30.62 133.22 30.62 133.22 30.17 132.04 C29.58 130.51 29 128.98 28.42 127.44 C27.85 125.94 27.27 124.43 26.68 122.94 C25.49 119.88 24.56 117.5 24.56 114.19 C16.79 114.12 9.02 114.06 1.25 114.03 C-2.36 114.02 -5.97 114 -9.58 113.96 C-13.06 113.93 -16.54 113.91 -20.02 113.9 C-22 113.89 -23.97 113.87 -25.95 113.85 C-27.15 113.85 -28.35 113.85 -29.59 113.85 C-31.18 113.84 -31.18 113.84 -32.8 113.83 C-35.47 113.97 -35.47 113.97 -37.25 115.6 C-38.56 117.35 -39.32 118.94 -40.09 121 C-40.37 121.74 -40.65 122.48 -40.94 123.24 C-41.23 124.03 -41.51 124.82 -41.81 125.62 C-42.43 127.25 -43.04 128.87 -43.66 130.49 C-44.11 131.69 -44.11 131.69 -44.57 132.91 C-45.76 136.04 -46.99 139.15 -48.25 142.25 C-48.63 143.19 -49.01 144.13 -49.39 145.1 C-50.44 147.19 -50.44 147.19 -52.44 148.19 C-54.44 148.23 -56.44 148.23 -58.44 148.19 C-58.44 147.86 -58.44 147.53 -58.44 147.19 C-60.75 147.19 -63.06 147.19 -65.44 147.19 C-65.77 145.87 -66.1 144.55 -66.44 143.19 C-65.78 143.19 -65.12 143.19 -64.44 143.19 C-64.77 141.87 -65.1 140.55 -65.44 139.19 C-63.95 138.2 -63.95 138.2 -62.44 137.19 C-61.46 135.08 -61.46 135.08 -60.81 132.69 C-59.48 128.27 -59.48 128.27 -58.44 126.19 C-58.11 125.2 -57.78 124.21 -57.44 123.19 C-56.44 120.19 -56.44 120.19 -55.44 118.19 C-55.13 117.4 -54.82 116.62 -54.5 115.81 C-53.44 113.19 -53.44 113.19 -52.55 111.43 C-50.19 106.66 -48.25 101.69 -46.21 96.77 C-45.38 94.76 -44.54 92.75 -43.69 90.74 C-43.16 89.45 -42.62 88.17 -42.09 86.88 C-41.36 85.13 -41.36 85.13 -40.62 83.35 C-39.59 80.61 -38.9 78.08 -38.44 75.19 C-37.78 75.19 -37.12 75.19 -36.44 75.19 C-36.32 74.47 -36.19 73.76 -36.07 73.03 C-35.42 70.11 -34.49 67.54 -33.37 64.77 C-32.97 63.77 -32.57 62.76 -32.15 61.72 C-31.3 59.61 -30.44 57.49 -29.59 55.38 C-29.19 54.38 -28.78 53.37 -28.37 52.34 C-28 51.42 -27.63 50.5 -27.25 49.56 C-26.28 47.13 -26.28 47.13 -26.44 44.19 C-25.78 44.19 -25.12 44.19 -24.44 44.19 C-24.2 43.31 -24.2 43.31 -23.96 42.42 C-22.56 37.51 -20.92 32.87 -18.88 28.19 C-16.61 22.92 -15.28 17.84 -14.44 12.19 C-13.78 12.19 -13.12 12.19 -12.44 12.19 C-11.91 11.01 -11.91 11.01 -11.38 9.82 C-10.92 8.8 -10.47 7.79 -10 6.75 C-9.55 5.74 -9.1 4.73 -8.63 3.69 C-6.51 -0.76 -4.81 0.03 0 0 Z M8.56 6.19 C9.56 9.19 9.56 9.19 9.56 9.19 Z M-13.44 13.19 C-12.44 15.19 -12.44 15.19 -12.44 15.19 Z M13.56 19.19 C14.56 21.19 14.56 21.19 14.56 21.19 Z M14.56 22.19 C15.56 25.19 15.56 25.19 15.56 25.19 Z M-8.44 32.19 C-7.44 34.19 -7.44 34.19 -7.44 34.19 Z M-9.44 34.19 C-8.44 36.19 -8.44 36.19 -8.44 36.19 Z M-6.44 34.19 C-6.71 34.89 -6.99 35.59 -7.27 36.31 C-7.86 37.81 -7.86 37.81 -8.46 39.33 C-8.9 40.45 -9.34 41.57 -9.79 42.72 C-10.77 45.22 -11.75 47.72 -12.74 50.22 C-15.08 56.18 -17.42 62.14 -19.75 68.1 C-20.5 70.01 -21.25 71.92 -22 73.83 C-22.94 76.23 -23.88 78.63 -24.82 81.03 C-28.37 90.09 -28.37 90.09 -30.25 94.29 C-31.63 97.13 -31.63 97.13 -31.44 100.19 C-30.51 100.19 -29.58 100.19 -28.63 100.19 C-16.57 100.19 -4.5 100.19 7.56 100.19 C9.08 100.03 10.6 99.86 12.12 99.69 C12.95 99.59 13.78 99.5 14.63 99.41 C15.59 99.3 15.59 99.3 16.56 99.19 C16.56 95.69 16.22 93.38 15.31 90.06 C14.96 88.76 14.96 88.76 14.61 87.43 C13.79 84.9 12.9 82.52 11.9 80.07 C9.84 75.01 8 69.87 6.18 64.71 C5.88 63.86 5.57 63.01 5.26 62.13 C4 58.54 2.73 54.96 1.48 51.38 C0.55 48.74 -0.38 46.1 -1.32 43.46 C-1.6 42.65 -1.89 41.83 -2.18 40.99 C-3.36 36.84 -3.36 36.84 -6.44 34.19 Z M-10.44 36.19 C-9.44 39.19 -9.44 39.19 -9.44 39.19 Z M-11.44 39.19 C-10.44 42.19 -10.44 42.19 -10.44 42.19 Z M-12.44 42.19 C-11.44 44.19 -11.44 44.19 -11.44 44.19 Z M-13.44 44.19 C-12.44 47.19 -12.44 47.19 -12.44 47.19 Z M-14.44 47.19 C-13.44 49.19 -13.44 49.19 -13.44 49.19 Z M23.56 47.19 C24.56 49.19 24.56 49.19 24.56 49.19 Z M-15.44 49.19 C-14.44 52.19 -14.44 52.19 -14.44 52.19 Z M-16.44 52.19 C-15.44 54.19 -15.44 54.19 -15.44 54.19 Z M-17.44 54.19 C-16.44 57.19 -16.44 57.19 -16.44 57.19 Z M26.56 55.19 C27.56 57.19 27.56 57.19 27.56 57.19 Z M-18.44 57.19 C-17.44 59.19 -17.44 59.19 -17.44 59.19 Z M27.56 58.19 C28.56 60.19 28.56 60.19 28.56 60.19 Z M-19.44 59.19 C-18.44 62.19 -18.44 62.19 -18.44 62.19 Z M-20.44 62.19 C-19.44 65.19 -19.44 65.19 -19.44 65.19 Z M-21.44 65.19 C-20.44 67.19 -20.44 67.19 -20.44 67.19 Z M30.56 66.19 C31.56 68.19 31.56 68.19 31.56 68.19 Z M-22.44 67.19 C-21.44 70.19 -21.44 70.19 -21.44 70.19 Z M-23.44 70.19 C-22.44 72.19 -22.44 72.19 -22.44 72.19 Z M-24.44 72.19 C-23.44 75.19 -23.44 75.19 -23.44 75.19 Z M32.56 72.19 C33.56 74.19 33.56 74.19 33.56 74.19 Z M-25.44 75.19 C-24.44 77.19 -24.44 77.19 -24.44 77.19 Z M34.56 77.19 C35.56 79.19 35.56 79.19 35.56 79.19 Z M-27.44 80.19 C-26.44 82.19 -26.44 82.19 -26.44 82.19 Z M-28.44 82.19 C-27.44 85.19 -27.44 85.19 -27.44 85.19 Z M-29.44 85.19 C-28.44 87.19 -28.44 87.19 -28.44 87.19 Z M-30.44 87.19 C-29.44 89.19 -29.44 89.19 -29.44 89.19 Z M-31.44 89.19 C-30.44 93.19 -30.44 93.19 -30.44 93.19 Z M-32.44 93.19 C-31.44 95.19 -31.44 95.19 -31.44 95.19 Z M-33.44 95.19 C-32.44 98.19 -32.44 98.19 -32.44 98.19 Z M42.56 98.19 C43.56 100.19 43.56 100.19 43.56 100.19 Z M43.56 101.19 C44.56 103.19 44.56 103.19 44.56 103.19 Z M45.56 107.19 C46.56 109.19 46.56 109.19 46.56 109.19 Z M-34.44 111.19 C-30.44 112.19 -30.44 112.19 -30.44 112.19 Z M-26.44 111.19 C-26.44 111.52 -26.44 111.85 -26.44 112.19 C-23.47 112.19 -20.5 112.19 -17.44 112.19 C-17.44 111.86 -17.44 111.53 -17.44 111.19 C-20.41 111.19 -23.38 111.19 -26.44 111.19 Z M-11.44 111.19 C-11.44 111.52 -11.44 111.85 -11.44 112.19 C-8.47 112.19 -5.5 112.19 -2.44 112.19 C-2.44 111.86 -2.44 111.53 -2.44 111.19 C-5.41 111.19 -8.38 111.19 -11.44 111.19 Z M5.56 111.19 C9.56 112.19 9.56 112.19 9.56 112.19 Z M13.56 111.19 C17.56 112.19 17.56 112.19 17.56 112.19 Z M47.56 112.19 C48.56 114.19 48.56 114.19 48.56 114.19 Z M-40.44 113.19 C-39.44 115.19 -39.44 115.19 -39.44 115.19 Z M-41.44 115.19 C-40.44 117.19 -40.44 117.19 -40.44 117.19 Z M-42.44 117.19 C-41.44 119.19 -41.44 119.19 -41.44 119.19 Z M-43.44 119.19 C-42.44 122.19 -42.44 122.19 -42.44 122.19 Z M-44.44 122.19 C-43.44 125.19 -43.44 125.19 -43.44 125.19 Z M-45.44 125.19 C-44.44 127.19 -44.44 127.19 -44.44 127.19 Z M52.56 126.19 C53.56 128.19 53.56 128.19 53.56 128.19 Z M-46.44 127.19 C-45.44 129.19 -45.44 129.19 -45.44 129.19 Z M-47.44 129.19 C-46.44 132.19 -46.44 132.19 -46.44 132.19 Z M54.56 131.19 C55.56 133.19 55.56 133.19 55.56 133.19 Z M-48.44 132.19 C-47.44 135.19 -47.44 135.19 -47.44 135.19 Z M-49.44 135.19 C-48.44 137.19 -48.44 137.19 -48.44 137.19 Z M56.56 136.19 C57.56 138.19 57.56 138.19 57.56 138.19 Z M-50.44 137.19 C-49.44 140.19 -49.44 140.19 -49.44 140.19 Z M-52.44 142.19 C-51.44 145.19 -51.44 145.19 -51.44 145.19 Z M59.56 144.19 C60.56 146.19 60.56 146.19 60.56 146.19 Z " fill="#9D913A" transform="translate(805.4375,499.8125)"/>
<path d="M0 0 C0 0.66 0 1.32 0 2 C0.87 11.13 2.25 19.92 4.68 28.77 C5.56 32.03 6 34.58 6 38 C5.34 38.16 4.67 38.32 3.99 38.48 C-3.08 40.35 -6.81 42.28 -10.63 48.77 C-12.13 51.49 -13.59 54.23 -15 57 C-20.74 55.67 -23.26 53.05 -26.94 48.75 C-28 47.57 -29.06 46.4 -30.13 45.22 C-31.73 43.44 -33.3 41.64 -34.84 39.81 C-37.61 36.89 -39.3 36.09 -43.36 35.58 C-50.14 35.38 -50.14 35.38 -56.62 37.09 C-59.58 38.22 -60.93 37.65 -64 37 C-65.88 36.86 -67.76 36.75 -69.65 36.68 C-71.27 36.62 -71.27 36.62 -72.92 36.56 C-74.06 36.52 -75.2 36.48 -76.38 36.44 C-77.54 36.4 -78.7 36.36 -79.9 36.32 C-83.27 36.2 -86.63 36.1 -90 36 C-91.28 35.95 -91.28 35.95 -92.58 35.91 C-94.64 35.84 -96.69 35.79 -98.75 35.75 C-99.84 35.72 -100.93 35.7 -102.05 35.67 C-106.29 36.14 -109.66 37.46 -112.5 40.73 C-112.85 41.35 -113.2 41.98 -113.56 42.62 C-113.96 43.32 -114.36 44.01 -114.77 44.73 C-115.17 45.48 -115.58 46.23 -116 47 C-116.47 47.83 -116.94 48.67 -117.42 49.52 C-118.63 51.67 -119.82 53.83 -121 56 C-122.49 55.5 -122.49 55.5 -124 55 C-125.19 52.44 -125.19 52.44 -126 50 C-125.01 49.01 -124.02 48.02 -123 47 C-129.04 37.08 -129.04 37.08 -138 30 C-137.81 29.43 -137.61 28.86 -137.41 28.28 C-135.82 23.55 -134.33 18.81 -133 14 C-129.09 12.94 -126.75 13.11 -122.94 14.44 C-119.58 15.59 -117.65 16 -114 16 C-114 16.66 -114 17.32 -114 18 C-111.69 18 -109.38 18 -107 18 C-107 18.66 -107 19.32 -107 20 C-105.98 20.16 -105.98 20.16 -104.95 20.33 C-99.2 21.31 -93.79 22.57 -88.29 24.51 C-83.52 25.53 -78.86 23.41 -74.31 22 C-73.17 21.65 -72.04 21.3 -70.86 20.94 C-68.09 20.11 -68.09 20.11 -66 19 C-65.34 19.33 -64.68 19.66 -64 20 C-64 19.34 -64 18.68 -64 18 C-62.93 17.88 -61.86 17.75 -60.75 17.62 C-57.56 17.09 -55.73 16.56 -53 15 C-49.8 13.93 -47.34 13.93 -44 14 C-44 13.34 -44 12.68 -44 12 C-43.07 11.9 -42.14 11.79 -41.19 11.69 C-36.04 10.95 -30.89 9.77 -26 8 C-25.67 7.34 -25.34 6.68 -25 6 C-22.68 5.61 -20.38 5.49 -18.03 5.34 C-17.36 5.23 -16.69 5.12 -16 5 C-15.67 4.34 -15.34 3.68 -15 3 C-13.02 3 -11.04 3 -9 3 C-8.67 2.34 -8.34 1.68 -8 1 C-3.6 -1.2 -3.6 -1.2 0 0 Z " fill="#010102" transform="translate(698,740)"/>
<path d="M0 0 C2 4 1.51 8.65 1 13 C-0.08 15.76 -0.08 15.76 -1.44 18.56 C-4.32 24.68 -4.58 30.2 -4.46 36.86 C-4.48 40.61 -4.55 42.52 -7.16 45.32 C-10.08 47.05 -13.01 48.75 -16 50.38 C-20.79 53.15 -24.13 55.24 -27 60 C-27.16 61.22 -27.33 62.43 -27.5 63.69 C-28 67 -28 67 -30.44 68.81 C-31.71 69.4 -31.71 69.4 -33 70 C-33.66 70.66 -34.32 71.32 -35 72 C-35 72.99 -35 73.98 -35 75 C-42.55 79.83 -42.55 79.83 -48 79 C-49.7 78.05 -51.36 77.05 -53 76 C-56.48 75.12 -59.79 74.86 -63.38 74.79 C-64.38 74.76 -65.39 74.73 -66.42 74.7 C-68.52 74.65 -70.62 74.61 -72.72 74.57 C-73.72 74.54 -74.72 74.51 -75.75 74.48 C-76.66 74.46 -77.58 74.44 -78.51 74.42 C-81.44 73.93 -82.83 73 -85 71 C-85.94 69 -85.94 69 -86 67 C-84.16 64.4 -81.43 62.92 -78.77 61.23 C-76.93 60 -76.93 60 -75.14 58.36 C-68.54 52.64 -61.23 50.38 -53 48 C-37.43 44.22 -37.43 44.22 -25 35 C-23 29.97 -21.66 24.76 -20.41 19.5 C-18.28 11.67 -12.91 5.25 -5.89 1.21 C-3 0 -3 0 0 0 Z M-29 62 C-28 64 -28 64 -28 64 Z M-81 72 C-81 72.33 -81 72.66 -81 73 C-73.08 73 -65.16 73 -57 73 C-57 72.67 -57 72.34 -57 72 C-64.92 72 -72.84 72 -81 72 Z M-38 73 C-38.33 73.66 -38.66 74.32 -39 75 C-38.01 74.67 -37.02 74.34 -36 74 C-36.66 73.67 -37.32 73.34 -38 73 Z M-47 76 C-47 76.33 -47 76.66 -47 77 C-45.02 77 -43.04 77 -41 77 C-41 76.67 -41 76.34 -41 76 C-42.98 76 -44.96 76 -47 76 Z " fill="#9C9038" transform="translate(689,839)"/>
<path d="M0 0 C2.42 0.55 4.47 0.52 6.95 0.4 C8.31 0.37 8.31 0.37 9.71 0.33 C11.62 0.26 13.52 0.19 15.43 0.09 C22.42 -0.07 22.42 -0.07 26.12 2.76 C26.79 3.66 27.45 4.56 28.14 5.48 C28.65 6.14 29.16 6.8 29.68 7.47 C32.51 11.89 33.81 15.24 34.14 20.48 C32.7 20.34 31.26 20.19 29.82 20.04 C29.02 19.96 28.22 19.88 27.4 19.8 C25.14 19.48 25.14 19.48 22.14 18.48 C14.54 17.94 7 17.82 0.14 21.48 C-2.7 23.98 -2.7 23.98 -4.86 26.48 C-5.85 26.81 -6.84 27.14 -7.86 27.48 C-9.28 28.84 -9.28 28.84 -10.61 30.54 C-12.88 33.3 -15.21 35.97 -17.61 38.61 C-20.77 42.26 -22.92 44.78 -22.82 49.8 C-22.53 53.54 -22.1 56.82 -20.82 60.37 C-19.75 63.86 -19.66 66.71 -19.74 70.36 C-19.76 71.51 -19.77 72.66 -19.79 73.85 C-19.83 75.15 -19.83 75.15 -19.86 76.48 C-21.84 77.47 -21.84 77.47 -23.86 78.48 C-27.27 75.51 -28.52 73.32 -29.53 68.94 C-29.78 67.87 -30.04 66.79 -30.3 65.68 C-30.55 64.57 -30.8 63.45 -31.05 62.29 C-31.44 60.65 -31.44 60.65 -31.84 58.96 C-33.26 52.82 -34.34 46.77 -34.86 40.48 C-34.97 39.57 -35.07 38.67 -35.17 37.73 C-35.58 30.61 -33.06 27.01 -28.86 21.48 C-27.64 19.64 -26.43 17.79 -25.24 15.92 C-24.65 15 -24.06 14.08 -23.46 13.13 C-22.05 10.79 -20.87 8.47 -19.74 5.98 C-15.71 -1.54 -7.88 -2.19 0 0 Z " fill="#9B8E34" transform="translate(607.86328125,781.517578125)"/>
<path d="M0 0 C1.39 2.79 1.18 5.2 1.3 8.32 C1.78 17.46 3.66 26.24 5.65 35.15 C6.25 37.89 6.83 40.63 7.41 43.37 C7.8 45.14 8.19 46.91 8.58 48.68 C8.75 49.48 8.91 50.29 9.09 51.11 C11.25 60.56 15.67 68.71 24 74 C27.31 75.42 30.62 76.65 34.05 77.76 C37.19 79.08 38.86 80.37 41 83 C41.06 85 41.06 85 40 87 C34.29 92.71 25.29 97.13 17.19 97.19 C13.09 97.13 9.71 96.9 6 95 C3.31 91.23 2.09 87.44 0.88 83 C0.54 81.8 0.21 80.61 -0.13 79.38 C-0.85 76.59 -1.48 73.83 -2 71 C-1.67 71 -1.34 71 -1 71 C-1 67.7 -1 64.4 -1 61 C-1.33 61 -1.66 61 -2 61 C-1.8 59.53 -1.8 59.53 -1.61 58.04 C-0.83 50.7 -0.36 45.14 -4.58 38.73 C-5.96 36.97 -5.96 36.97 -7.6 35.5 C-9.86 33.09 -10.23 30.14 -11 27 C-11.66 27 -12.32 27 -13 27 C-18.51 18.76 -18.51 18.76 -18.19 13.94 C-16.9 7.85 -12.98 3.34 -7.94 -0.06 C-4.74 -1.08 -3.13 -1.16 0 0 Z " fill="#9D9139" transform="translate(567,812)"/>
<path d="M0 0 C2.6 2.12 4.65 4.41 6.75 7.02 C8.44 9.07 8.44 9.07 10.79 11.31 C19.03 19.68 29.23 31.66 29.69 43.94 C29.64 46.96 29.5 47.76 27.69 50.31 C25.38 51.94 25.38 51.94 22.89 52.67 C19.43 54.41 19.04 56.22 17.75 59.81 C16.34 63.67 15.02 66.77 12.38 69.94 C9.94 69.31 9.94 69.31 7.38 67.94 C5.67 61.76 6.41 55.06 6.68 48.72 C6.8 42.52 6.14 38.95 2.38 33.94 C-0.03 31.82 -0.03 31.82 -2.69 30.25 C-7.66 27.12 -10.16 24.97 -11.5 19.12 C-11.65 18.43 -11.8 17.74 -11.95 17.02 C-12.71 14.67 -13.77 13.23 -15.31 11.31 C-17.3 8.73 -17.61 8.11 -17.81 4.69 C-16.62 1.94 -16.62 1.94 -14.06 0.06 C-9.11 -1.56 -4.98 -2.02 0 0 Z " fill="#9B8E34" transform="translate(657.625,781.0625)"/>
<path d="M0 0 C2.37 2.6 3 3.42 3 7 C-3.4 7.25 -3.4 7.25 -6.38 6.01 C-14.89 2.73 -25.37 5.04 -33.49 8.48 C-44.65 13.66 -49.52 19.68 -54 31 C-54.78 33.33 -55.42 35.61 -56 38 C-58.43 36.27 -59.79 34.76 -60.59 31.86 C-61.89 22.51 -59.22 14.77 -53.8 7.17 C-39.84 -9.63 -18.75 -10.94 0 0 Z " fill="#9B8E34" transform="translate(648,810)"/>
<path d="M0 0 C2.25 0.06 2.25 0.06 5 1 C9.35 6.53 9.58 11.14 9 18 C8.8 19.56 8.59 21.13 8.38 22.69 C7.99 25.75 8.04 27.12 8.94 30.19 C10.59 36.11 10.69 41.9 10 48 C6.22 54.26 -3.23 58.38 -10.19 60.38 C-11.12 60.58 -12.04 60.79 -13 61 C-13 57.59 -12.28 56.44 -10.56 53.56 C-7.82 48.95 -6.9 45.4 -6.79 40.04 C-6.76 39.09 -6.73 38.15 -6.7 37.17 C-6.65 35.19 -6.61 33.22 -6.57 31.24 C-6.38 25.31 -5.51 21.34 -3 16 C-2.54 13.58 -2.16 11.14 -1.88 8.69 C-1.09 2.17 -1.09 2.17 0 0 Z " fill="#9B8E34" transform="translate(651,822)"/>
<path d="M0 0 C1.8 0.15 1.8 0.15 4 1 C5.61 3.44 5.61 3.44 7.19 6.56 C11.56 14.42 17.16 20.77 25.95 23.55 C28.95 24.21 31.95 24.51 35.02 24.69 C37 25 37 25 40 27 C39.81 28.88 39.81 28.88 39 31 C34.63 33.41 30.3 33.39 25.44 33.38 C24.24 33.37 24.24 33.37 23.02 33.37 C11.86 33.14 2.39 29.67 -5.5 21.62 C-7 19.8 -7 19.8 -8 18 C-7.4 13.71 -5.23 10.65 -3 7 C-1.94 4.69 -0.97 2.35 0 0 Z " fill="#9B8E34" transform="translate(592,854)"/>
<path d="M0 0 C1.22 3.66 0.72 4.32 -0.94 7.69 C-9.05 23.01 -25.18 28.62 -40.25 35.06 C-42 35.82 -43.74 36.57 -45.49 37.32 C-49 38.84 -52.52 40.36 -56.04 41.87 C-60.44 43.76 -64.85 45.66 -69.25 47.58 C-81.15 52.75 -93.07 57.89 -105 63 C-133.91 75.35 -133.91 75.35 -162.61 88.2 C-173.35 93.11 -184.2 97.76 -195.04 102.43 C-199.87 104.51 -204.7 106.61 -209.52 108.72 C-211.59 109.62 -213.66 110.53 -215.74 111.43 C-217.07 112.02 -218.41 112.6 -219.74 113.19 C-221.59 114 -223.44 114.81 -225.3 115.61 C-226.35 116.08 -227.41 116.54 -228.5 117.01 C-231 118 -231 118 -233 118 C-232.34 119.07 -231.68 120.14 -231 121.25 C-226.79 129.89 -228.73 138.73 -231.59 147.51 C-234.77 156.6 -238.86 165.32 -243 174 C-243.34 174.72 -243.68 175.43 -244.03 176.17 C-256.6 202.58 -256.6 202.58 -264 211 C-264.66 211 -265.32 211 -266 211 C-264.77 207.66 -263.38 204.91 -261.32 202.02 C-257.32 196.17 -254.16 189.93 -250.94 183.62 C-250.34 182.47 -249.74 181.32 -249.12 180.12 C-244.24 170.65 -239.53 161.24 -236.31 151.06 C-234.16 144.28 -234.16 144.28 -232.88 142.02 C-230.55 136.68 -230.96 127.93 -232.9 122.46 C-234.05 120.38 -234.05 120.38 -236 118 C-226.85 113.33 -217.62 108.96 -208.19 104.88 C-206.84 104.29 -205.5 103.71 -204.16 103.12 C-189.07 96.56 -173.95 90.1 -158.82 83.64 C-146.03 78.17 -133.25 72.65 -120.49 67.09 C-114.81 64.61 -109.12 62.15 -103.44 59.69 C-102.17 59.14 -100.9 58.59 -99.64 58.04 C-97.68 57.19 -95.73 56.35 -93.77 55.5 C-89.42 53.62 -85.07 51.73 -80.72 49.84 C-79.52 49.32 -78.32 48.8 -77.09 48.27 C-74.65 47.21 -72.22 46.16 -69.79 45.1 C-63.47 42.35 -57.14 39.63 -50.78 36.96 C-47.44 35.56 -44.1 34.14 -40.77 32.72 C-39.16 32.04 -37.54 31.37 -35.93 30.7 C-21.59 24.75 -7.64 17.96 -1.06 2.94 C-0.71 1.97 -0.36 1 0 0 Z " fill="#D1DCC3" transform="translate(961,669)"/>
<path d="M0 0 C0.9 -0 1.79 -0.01 2.72 -0.01 C5.72 -0.02 8.73 -0.01 11.74 0 C13.91 -0 16.09 -0.01 18.27 -0.01 C24.25 -0.02 30.23 -0.01 36.22 -0 C42.67 0.01 49.12 -0 55.57 -0.01 C67.48 -0.02 79.39 -0.01 91.29 -0 C102.29 0.01 113.29 0.01 124.29 0.01 C125.02 0.01 125.75 0.01 126.5 0.01 C129.46 0.01 132.42 0.01 135.38 0.01 C163.16 0.01 190.94 0.02 218.71 0.04 C243.4 0.06 268.09 0.06 292.77 0.06 C294.36 0.06 295.94 0.06 297.53 0.06 C298.31 0.06 299.09 0.06 299.9 0.06 C303.85 0.06 307.79 0.06 311.74 0.06 C312.9 0.05 312.9 0.05 314.1 0.05 C334.72 0.05 355.34 0.06 375.96 0.06 C378.17 0.07 380.39 0.07 382.61 0.07 C384.08 0.07 385.55 0.07 387.03 0.07 C397.29 0.07 407.56 0.07 417.82 0.07 C431.05 0.07 444.28 0.07 457.5 0.09 C463.88 0.1 470.26 0.1 476.64 0.1 C482.48 0.09 488.31 0.1 494.15 0.11 C496.26 0.11 498.38 0.11 500.5 0.11 C503.36 0.1 506.23 0.11 509.1 0.12 C510.34 0.11 510.34 0.11 511.61 0.11 C515.84 0.14 519.06 0.43 522.92 2.37 C519.92 3.37 519.92 3.37 517.78 2.95 C513.92 2.18 510.12 2.24 506.21 2.25 C504.89 2.24 504.89 2.24 503.54 2.24 C500.57 2.24 497.6 2.24 494.63 2.24 C492.49 2.24 490.35 2.24 488.2 2.23 C482.3 2.23 476.4 2.23 470.5 2.23 C464.14 2.23 457.78 2.22 451.41 2.22 C438.95 2.21 426.48 2.21 414.02 2.21 C403.89 2.21 393.76 2.21 383.62 2.2 C380.71 2.2 377.79 2.2 374.88 2.2 C373.79 2.2 373.79 2.2 372.68 2.2 C352.3 2.19 331.91 2.19 311.53 2.19 C310.76 2.19 309.99 2.19 309.2 2.19 C305.3 2.19 301.4 2.19 297.51 2.19 C296.73 2.19 295.96 2.19 295.16 2.19 C293.6 2.19 292.03 2.19 290.47 2.19 C266.12 2.19 241.77 2.18 217.42 2.17 C190.07 2.15 162.72 2.14 135.37 2.15 C132.45 2.15 129.54 2.15 126.62 2.15 C125.9 2.15 125.19 2.15 124.45 2.15 C112.89 2.15 101.33 2.14 89.77 2.13 C78.15 2.12 66.54 2.12 54.92 2.13 C48.63 2.13 42.34 2.13 36.04 2.12 C30.28 2.12 24.53 2.12 18.77 2.13 C16.68 2.13 14.59 2.12 12.51 2.12 C9.68 2.11 6.85 2.12 4.01 2.13 C2.8 2.12 2.8 2.12 1.55 2.11 C-5.36 2.15 -11.95 2.84 -17.39 7.5 C-20.78 10.37 -20.78 10.37 -24.08 10.37 C-22.9 9.26 -21.71 8.16 -20.52 7.06 C-19.85 6.45 -19.19 5.83 -18.51 5.2 C-12.52 0.71 -7.27 -0.06 0 0 Z " fill="#D1DCC3" transform="translate(357.0777225494385,469.62526988983154)"/>
<path d="M0 0 C2.56 0.99 3.78 1.64 5.23 4.03 C5.57 4.85 5.91 5.66 6.26 6.51 C6.65 7.41 7.05 8.31 7.45 9.24 C7.86 10.19 8.27 11.14 8.69 12.12 C12.91 21.48 16.76 28.37 26.56 32.5 C27.37 32.66 28.17 32.83 29 33 C29 33.66 29 34.32 29 35 C29.66 35 30.32 35 31 35 C30.67 35.99 30.34 36.98 30 38 C23.89 40.04 17.29 39.8 11.25 37.69 C4.22 32.84 -1.8 23.21 -4 15 C-4.68 9.84 -5.19 5.6 -2 1.31 C-1.34 0.88 -0.68 0.45 0 0 Z " fill="#9B8E34" transform="translate(603,836)"/>
<path d="M0 0 C3.61 2.89 5.77 5.52 7 10 C7.12 12.81 7.12 12.81 7 15 C4.63 14.08 2.33 13.18 0.09 11.96 C-4.24 9.98 -8.82 10.22 -13.26 11.8 C-17.53 14.09 -19.44 16.19 -21 20.81 C-21.36 22.2 -21.71 23.6 -22 25 C-22.66 23.68 -23.32 22.36 -24 21 C-24.66 21 -25.32 21 -26 21 C-29 14.88 -29 14.88 -29 11.31 C-26.82 6.28 -21.78 4.26 -16.94 2.31 C-15.4 1.69 -15.4 1.69 -13.84 1.05 C-8.74 -0.84 -5.42 -1.33 0 0 Z " fill="#9B8E34" transform="translate(637,818)"/>
<path d="M0 0 C7.1 3.1 11.46 9.73 14.22 16.75 C14.48 17.49 14.74 18.23 15 19 C15.23 19.65 15.45 20.3 15.68 20.97 C19.07 33.09 18.16 48.37 12.71 59.68 C7.1 69.56 0.21 76.82 -10 82 C-10.66 82.36 -11.32 82.71 -12 83.08 C-22.05 87.68 -33.4 86.42 -44.19 86.25 C-51.39 86.17 -58.58 86.09 -66 86 C-66.33 101.84 -66.66 117.68 -67 134 C-67.33 134 -67.66 134 -68 134 C-68.83 124.13 -69.18 114.35 -69.19 104.44 C-69.2 103.1 -69.21 101.76 -69.22 100.42 C-69.23 99.15 -69.23 97.87 -69.23 96.56 C-69.23 95.42 -69.24 94.28 -69.24 93.1 C-69 90 -68.32 87.8 -67 85 C-57.97 83.7 -48.95 83.95 -39.86 84.1 C-23.12 84.34 -9.85 81.64 2.74 69.7 C6.93 64.7 9.52 59.01 12 53 C12.39 52.1 12.78 51.19 13.18 50.26 C14.38 45.52 14.25 40.93 14.19 36.06 C14.19 35.1 14.19 34.14 14.19 33.14 C14.15 28.02 14.07 23.02 13 18 C12.34 17.67 11.68 17.34 11 17 C10.75 16.32 10.5 15.64 10.25 14.94 C8.48 10.79 5.76 7.54 3 4 C2 2.67 1 1.34 0 0 Z " fill="#D1DCC3" transform="translate(457,513)"/>
<path d="M0 0 C1.16 3.39 0.85 5.29 -0.34 8.64 C-0.68 9.58 -1.01 10.53 -1.35 11.51 C-1.73 12.56 -2.11 13.61 -2.5 14.69 C-2.9 15.81 -3.29 16.93 -3.7 18.09 C-5.12 22.06 -6.56 26.03 -8 30 C-8.28 30.76 -8.55 31.52 -8.84 32.31 C-12.6 42.65 -16.38 52.99 -20.18 63.32 C-23.78 73.12 -27.35 82.93 -30.91 92.74 C-33.09 98.75 -35.27 104.76 -37.48 110.75 C-37.86 111.78 -38.24 112.8 -38.62 113.85 C-39.31 115.71 -39.99 117.57 -40.68 119.42 C-44.29 129.27 -46.16 139.61 -42 149.62 C-41.63 150.4 -41.26 151.18 -40.88 151.98 C-40 154 -40 154 -40 157 C-40.82 155.73 -41.63 154.46 -42.44 153.19 C-42.89 152.48 -43.34 151.77 -43.81 151.04 C-46.37 146.64 -46.19 142.38 -46.19 137.44 C-46.19 136.63 -46.19 135.82 -46.19 134.99 C-46.13 129.29 -46.07 123.39 -44 118 C-43.01 117.5 -43.01 117.5 -42 117 C-41.29 115.27 -41.29 115.27 -40.75 113.06 C-39.26 107.81 -37.63 102.62 -35.94 97.44 C-35.68 96.63 -35.42 95.82 -35.16 94.98 C-34.5 92.97 -33.75 90.98 -33 89 C-32.01 88.5 -32.01 88.5 -31 88 C-30.44 86.24 -30.44 86.24 -30.11 84.1 C-29.01 78.67 -27.19 73.64 -25.25 68.46 C-24.89 67.46 -24.52 66.47 -24.14 65.44 C-22.95 62.23 -21.76 59.02 -20.56 55.81 C-19.75 53.61 -18.93 51.4 -18.11 49.2 C-16.5 44.82 -14.88 40.45 -13.26 36.08 C-10.51 28.68 -7.79 21.27 -5.08 13.86 C-3.98 10.85 -2.88 7.85 -1.77 4.84 C-1.18 3.23 -0.59 1.61 0 0 Z " fill="#D1DCC3" transform="translate(319,509)"/>
<path d="M0 0 C1.32 0.66 2.64 1.32 4 2 C4.56 8.41 2.75 13.24 0 19 C-1 20 -1 20 -4.56 20.44 C-9.92 20.38 -13.34 17.72 -17 14 C-18.56 11.25 -18.56 11.25 -19 9 C-18.67 8.34 -18.34 7.68 -18 7 C-16.81 7.25 -16.81 7.25 -15.59 7.5 C-12.24 8.02 -9.37 8.34 -6 8 C-3.2 5.75 -1.6 3.2 0 0 Z " fill="#9B8E34" transform="translate(639,844)"/>
<path d="M0 0 C9.19 8.7 10.9 23.24 11.39 35.25 C11.96 61 11.96 61 7 73 C6.56 74.06 6.13 75.11 5.68 76.2 C-0.51 89.67 -12.1 104.27 -26.3 109.84 C-27.78 110.36 -29.26 110.87 -30.75 111.38 C-31.5 111.65 -32.26 111.92 -33.04 112.2 C-38.61 114.13 -38.61 114.13 -42 113 C-41.03 112.64 -40.07 112.27 -39.07 111.9 C-20.19 104.66 -6.06 94.62 3 76 C6.91 65.47 8.23 55.93 8.3 44.77 C8.31 43.36 8.33 41.94 8.36 40.53 C8.63 27.37 6.65 15.59 0.73 3.64 C0 2 0 2 0 0 Z " fill="#D1DCC3" transform="translate(735,531)"/>
<path d="M0 0 C7.75 -0.05 15.51 -0.08 23.26 -0.1 C26.86 -0.11 30.46 -0.13 34.06 -0.15 C37.54 -0.17 41.01 -0.18 44.49 -0.19 C46.46 -0.2 48.43 -0.21 50.4 -0.23 C51.6 -0.23 52.8 -0.23 54.04 -0.23 C55.1 -0.23 56.15 -0.24 57.24 -0.24 C60.05 0 61.7 0.38 64 2 C64.75 5.12 64.75 5.12 65 8 C64.01 7.01 64.01 7.01 63 6 C63 5.01 63 4.02 63 3 C55.23 2.93 47.46 2.88 39.69 2.84 C36.08 2.83 32.47 2.81 28.86 2.77 C25.38 2.74 21.9 2.72 18.42 2.72 C16.44 2.71 14.46 2.68 12.49 2.66 C11.29 2.66 10.09 2.66 8.85 2.66 C7.26 2.65 7.26 2.65 5.64 2.64 C2.97 2.78 2.97 2.78 1.19 4.41 C-0.12 6.17 -0.89 7.75 -1.65 9.81 C-2.07 10.92 -2.07 10.92 -2.5 12.06 C-2.79 12.84 -3.08 13.63 -3.38 14.44 C-3.99 16.06 -4.61 17.68 -5.22 19.3 C-5.67 20.5 -5.67 20.5 -6.13 21.72 C-7.32 24.85 -8.55 27.96 -9.81 31.06 C-10.38 32.47 -10.38 32.47 -10.96 33.91 C-12 36 -12 36 -14 37 C-16 37.04 -18 37.04 -20 37 C-20 36.67 -20 36.34 -20 36 C-19.07 35.81 -18.14 35.63 -17.18 35.44 C-13.75 34.28 -13.75 34.28 -12.38 30.94 C-11.94 29.63 -11.52 28.32 -11.12 27 C-9.05 20.63 -6.57 14.53 -3.8 8.44 C-3.44 7.62 -3.07 6.8 -2.69 5.96 C-1.8 3.97 -0.9 1.99 0 0 Z " fill="#D1DCC3" transform="translate(767,611)"/>
<path d="M0 0 C2 1 2 1 2.73 2.82 C2.96 3.62 3.18 4.41 3.41 5.24 C3.81 6.6 3.81 6.6 4.21 7.99 C4.63 9.5 4.63 9.5 5.05 11.03 C5.35 12.07 5.65 13.11 5.96 14.19 C6.94 17.62 7.91 21.06 8.88 24.5 C9.55 26.89 10.24 29.28 10.92 31.67 C11.95 35.3 12.99 38.93 14.02 42.57 C16.77 52.22 19.57 61.87 22.41 71.5 C23.12 73.94 23.84 76.37 24.55 78.81 C26.93 86.95 29.32 95.09 31.73 103.22 C32.96 107.4 34.19 111.58 35.42 115.76 C36.01 117.78 36.61 119.8 37.21 121.82 C38.04 124.61 38.86 127.41 39.68 130.21 C39.93 131.04 40.18 131.87 40.44 132.73 C40.66 133.5 40.88 134.27 41.11 135.07 C41.31 135.73 41.5 136.4 41.71 137.09 C42.05 139.32 41.68 140.86 41 143 C39.99 139.73 39 136.46 38 133.19 C37.71 132.26 37.43 131.33 37.13 130.37 C36.86 129.48 36.59 128.59 36.31 127.67 C36.06 126.85 35.81 126.02 35.55 125.18 C35 123 35 123 35 120 C34.01 119.5 34.01 119.5 33 119 C32.22 116.27 31.54 113.59 30.94 110.81 C30.76 110.06 30.59 109.3 30.41 108.52 C29.66 105.18 28.99 101.9 28.5 98.51 C28.25 97.27 28.25 97.27 28 96 C27.34 95.67 26.68 95.34 26 95 C25.47 93 25.47 93 25.06 90.44 C24.35 86.53 23.31 83.09 21.83 79.4 C20.76 76.31 20.03 73.2 19.27 70.02 C16.83 60.03 13.91 50.18 11 40.31 C10.47 38.52 9.95 36.73 9.42 34.94 C6.93 26.45 4.4 17.97 1.76 9.52 C0.76 6.2 0 3.49 0 0 Z " fill="#CFDAC0" transform="translate(917,480)"/>
<path d="M0 0 C0.74 0 1.49 0 2.25 0 C10.13 0.14 17.65 1.58 25.31 3.31 C14.32 6.06 2.64 3.69 -8.69 3.31 C-8.69 27.4 -8.69 51.49 -8.69 76.31 C-9.35 76.31 -10.01 76.31 -10.69 76.31 C-11.52 62.57 -11.85 48.88 -11.82 35.11 C-11.81 31.96 -11.82 28.81 -11.82 25.66 C-11.82 23.63 -11.82 21.6 -11.82 19.57 C-11.82 18.65 -11.82 17.72 -11.83 16.76 C-11.81 11.86 -11.78 7.11 -10.69 2.31 C-7.02 -0.13 -4.24 -0.03 0 0 Z " fill="#D1DCC3" transform="translate(399.6875,510.6875)"/>
<path d="M0 0 C4.7 4.7 5.38 11.91 5.47 18.29 C5.45 19.54 5.45 19.54 5.44 20.81 C5.43 21.69 5.42 22.56 5.41 23.46 C5.03 38.19 -1.33 49.09 -11.82 59.18 C-17.26 63.72 -23.62 66.98 -30 70 C-30 69.01 -30 68.02 -30 67 C-29.18 66.6 -28.36 66.2 -27.51 65.79 C-14.4 59.11 -4.67 50.98 0.64 36.87 C2.34 31.58 2.41 26.58 2.31 21.06 C2.32 20.14 2.32 19.21 2.32 18.26 C2.27 11.97 1.45 6.12 0 0 Z " fill="#D1DCC3" transform="translate(586,529)"/>
<path d="M0 0 C1.28 2.57 1.33 4.77 1.56 7.62 C1.69 9.13 1.69 9.13 1.82 10.66 C1.88 11.43 1.94 12.21 2 13 C-1.45 15.3 -2.95 15.34 -7 15 C-7.66 14.34 -8.32 13.68 -9 13 C-6.86 10.86 -5.87 10.57 -3 10 C-3 8.68 -3 7.36 -3 6 C-3.53 6.27 -4.06 6.53 -4.61 6.8 C-8.07 8.54 -11.54 10.27 -15 12 C-14.74 8.17 -14.49 6.47 -11.69 3.75 C-7.49 1.02 -5.1 -0.28 0 0 Z " fill="#9B8E34" transform="translate(634,833)"/>
<path d="M0 0 C0.66 0 1.32 0 2 0 C-0.18 7.85 -2.99 15.37 -6 22.94 C-6.71 24.74 -6.71 24.74 -7.44 26.58 C-21.39 61.77 -21.39 61.77 -24 67 C-24.66 66.67 -25.32 66.34 -26 66 C-25.08 63.54 -24.17 61.08 -23.25 58.62 C-22.87 57.61 -22.87 57.61 -22.48 56.57 C-20.8 52.07 -19.05 47.6 -17.26 43.15 C-15.61 39.03 -13.99 34.91 -12.36 30.78 C-12.04 29.95 -11.71 29.12 -11.37 28.27 C-10 24.79 -8.63 21.31 -7.26 17.84 C-6.26 15.28 -5.25 12.72 -4.24 10.16 C-3.93 9.37 -3.62 8.58 -3.3 7.76 C-1.11 2.23 -1.11 2.23 0 0 Z " fill="#D1DCC3" transform="translate(798,532)"/>
<path d="M0 0 C2.88 -0.11 5.75 -0.19 8.62 -0.25 C9.43 -0.28 10.24 -0.32 11.07 -0.35 C16.72 -0.44 19.62 0.4 24 4 C23.67 4.66 23.34 5.32 23 6 C22.34 5.34 21.68 4.68 21 4 C14.07 3.67 7.14 3.34 0 3 C0 18.51 0 34.02 0 50 C-0.66 50 -1.32 50 -2 50 C-2.19 47.85 -2.38 45.71 -2.56 43.56 C-2.72 41.77 -2.72 41.77 -2.88 39.94 C-2.92 38.97 -2.96 38 -3 37 C-2.5 36.5 -2.5 36.5 -2 36 C-1.85 33.5 -1.77 31.03 -1.72 28.54 C-1.7 27.79 -1.68 27.04 -1.66 26.27 C-1.6 23.87 -1.55 21.46 -1.5 19.06 C-1.43 15.91 -1.36 12.75 -1.28 9.6 C-1.27 8.87 -1.25 8.14 -1.24 7.38 C-1.11 2.23 -1.11 2.23 0 0 Z " fill="#D1DCC3" transform="translate(508,597)"/>
<path d="M0 0 C-6.29 3.8 -11.64 5.23 -19 4 C-21.69 2 -21.69 2 -23 0 C-22.16 0.24 -22.16 0.24 -21.3 0.49 C-14.11 2.08 -6.16 -2.05 0 0 Z " fill="#D1DCC3" transform="translate(598,908)"/>
<path d="M0 0 C1.32 1.32 2.64 2.64 4 4 C3.67 4.66 3.34 5.32 3 6 C-0.52 6.2 -4.04 6.38 -7.56 6.56 C-8.55 6.62 -9.54 6.67 -10.56 6.73 C-15.88 7 -20.76 6.99 -26 6 C-26 5.67 -26 5.34 -26 5 C-20.08 3.9 -14.55 4.06 -8.56 4.44 C-7.64 4.49 -6.72 4.54 -5.77 4.6 C-3.51 4.72 -1.26 4.86 1 5 C0.67 3.35 0.34 1.7 0 0 Z " fill="#D1DCC3" transform="translate(587,642)"/>
<path d="M0 0 C0 3 0 3 -1.75 4.82 C-2.49 5.44 -3.24 6.05 -4 6.69 C-4.74 7.31 -5.49 7.93 -6.25 8.57 C-6.83 9.04 -7.4 9.52 -8 10 C-8.66 9.67 -9.32 9.34 -10 9 C-4.96 2.55 -4.96 2.55 -1 1 C-0.67 0.67 -0.34 0.34 0 0 Z " fill="#D1DCC3" transform="translate(604,806)"/>
<path d="M0 0 C0.33 0 0.66 0 1 0 C1 4.29 1 8.58 1 13 C0.67 13 0.34 13 0 13 C0 8.71 0 4.42 0 0 Z " fill="#9B8E34" transform="translate(365,543)"/>
<path d="M0 0 C4.75 0.75 4.75 0.75 7 3 C2.25 2.25 2.25 2.25 0 0 Z " fill="#CBD3B3" transform="translate(371,732)"/>
<path d="M0 0 C0.33 0 0.66 0 1 0 C1 2.97 1 5.94 1 9 C0.67 9 0.34 9 0 9 C0 6.03 0 3.06 0 0 Z " fill="#9B8E34" transform="translate(365,532)"/>
<path d="M0 0 C0.33 0 0.66 0 1 0 C1 2.64 1 5.28 1 8 C0.67 8 0.34 8 0 8 C0 5.36 0 2.72 0 0 Z " fill="#9B8E34" transform="translate(365,504)"/>
<path d="M0 0 C2.31 0 4.62 0 7 0 C7 0.33 7 0.66 7 1 C4.69 1 2.38 1 0 1 C0 0.67 0 0.34 0 0 Z " fill="#D1DCC3" transform="translate(499,647)"/>
<path d="M0 0 C0.33 0 0.66 0 1 0 C1 2.31 1 4.62 1 7 C0.67 7 0.34 7 0 7 C0 4.69 0 2.38 0 0 Z " fill="#A29948" transform="translate(365,635)"/>
<path d="M0 0 C0 0.99 0 1.98 0 3 C-0.99 3.5 -0.99 3.5 -2 4 C-1.34 2.68 -0.68 1.36 0 0 Z " fill="#D1DCC3" transform="translate(658,907)"/>
<path d="M0 0 C0.66 0.33 1.32 0.66 2 1 C0.02 1.99 0.02 1.99 -2 3 C-1.34 2.01 -0.68 1.02 0 0 Z " fill="#9B8E34" transform="translate(720,728)"/>
<path d="M0 0 C0.99 0.33 1.98 0.66 3 1 C1.35 1.33 -0.3 1.66 -2 2 C-1.34 1.34 -0.68 0.68 0 0 Z " fill="#A49B4B" transform="translate(727,724)"/>
<path d="M0 0 C2.48 0.5 2.48 0.5 5 1 C4.01 1.33 3.02 1.66 2 2 C1.34 1.34 0.68 0.68 0 0 Z " fill="#D1DCC3" transform="translate(327,713)"/>
<path d="M0 0 C0.33 1.32 0.66 2.64 1 4 C0.01 4.5 0.01 4.5 -1 5 C-0.67 3.35 -0.34 1.7 0 0 Z " fill="#ADA863" transform="translate(964,656)"/>
<path d="M0 0 C1.98 0 3.96 0 6 0 C6 0.33 6 0.66 6 1 C4.02 1 2.04 1 0 1 C0 0.67 0 0.34 0 0 Z " fill="#D1DCC3" transform="translate(639,647)"/>
<path d="M0 0 C1.98 0 3.96 0 6 0 C6 0.33 6 0.66 6 1 C4.02 1 2.04 1 0 1 C0 0.67 0 0.34 0 0 Z " fill="#D1DCC3" transform="translate(369,647)"/>
<path d="M0 0 C1.32 0.33 2.64 0.66 4 1 C3.01 1.5 3.01 1.5 2 2 C1.34 1.34 0.68 0.68 0 0 Z " fill="#C6CCA6" transform="translate(298,700)"/>
<path d="M0 0 C0.66 0.33 1.32 0.66 2 1 C0.68 1.33 -0.64 1.66 -2 2 C-1.34 1.34 -0.68 0.68 0 0 Z " fill="#000002" transform="translate(873,688)"/>
<path d="M0 0 C0.66 0.33 1.32 0.66 2 1 C1.01 1 0.02 1 -1 1 C-0.67 0.67 -0.34 0.34 0 0 Z " fill="#9B8E34" transform="translate(723,726)"/>
<path d="M0 0 C1 4 1 4 1 4 Z " fill="#C3C89F" transform="translate(962,665)"/>
<path d="M0 0 C1 4 1 4 1 4 Z " fill="#C3C89F" transform="translate(964,644)"/>
<path d="M0 0 C4 1 4 1 4 1 Z " fill="#D1DCC3" transform="translate(385,647)"/>
<path d="M0 0 C1 4 1 4 1 4 Z " fill="#A8A157" transform="translate(963,640)"/>
<path d="M0 0 C1 4 1 4 1 4 Z " fill="#000002" transform="translate(258,640)"/>
<path d="M0 0 C1 4 1 4 1 4 Z " fill="#9B8E34" transform="translate(566,547)"/>
<path d="M0 0 C3 1 3 1 3 1 Z " fill="#000002" transform="translate(648,753)"/>
<path d="M0 0 C3 1 3 1 3 1 Z " fill="#332F12" transform="translate(658,750)"/>
<path d="M0 0 C3 1 3 1 3 1 Z " fill="#000002" transform="translate(662,749)"/>
<path d="M0 0 C3 1 3 1 3 1 Z " fill="#000002" transform="translate(679,744)"/>
<path d="M0 0 C3 1 3 1 3 1 Z " fill="#000002" transform="translate(686,742)"/>
<path d="M0 0 C3 1 3 1 3 1 Z " fill="#000002" transform="translate(749,724)"/>
<path d="M0 0 C3 1 3 1 3 1 Z " fill="#000002" transform="translate(771,718)"/>
<path d="M0 0 C3 1 3 1 3 1 Z " fill="#000002" transform="translate(791,712)"/>
<path d="M0 0 C3 1 3 1 3 1 Z " fill="#000002" transform="translate(909,678)"/>
<path d="M0 0 C3 1 3 1 3 1 Z " fill="#000002" transform="translate(913,677)"/>
<path d="" fill="#D1DCC3" transform="translate(0,0)"/>
<path d="M0 0 C3 1 3 1 3 1 Z " fill="#D1DCC3" transform="translate(741,647)"/>
<path d="" fill="#D1DCC3" transform="translate(0,0)"/>
<path d="M0 0 C3 1 3 1 3 1 Z " fill="#9B8E34" transform="translate(423,583)"/>
<path d="M0 0 C3 1 3 1 3 1 Z " fill="#9B8E34" transform="translate(426,582)"/>
<path d="" fill="#9B8E34" transform="translate(0,0)"/>
<path d="" fill="#D1DCC3" transform="translate(0,0)"/>
<path d="M0 0 C3 1 3 1 3 1 Z " fill="#D1DCC3" transform="translate(680,514)"/>
<path d="" fill="#000002" transform="translate(0,0)"/>
<path d="" fill="#9B8E34" transform="translate(0,0)"/>
<path d="M0 0 C3 1 3 1 3 1 Z " fill="#ADA863" transform="translate(799,498)"/>
<path d="" fill="#BFC293" transform="translate(0,0)"/>
<path d="" fill="#9B8E34" transform="translate(0,0)"/>
<path d="M0 0 C2 1 2 1 2 1 Z " fill="#D1DCC3" transform="translate(466,773)"/>
<path d="M0 0 C2 1 2 1 2 1 Z " fill="#000002" transform="translate(617,762)"/>
<path d="M0 0 C2 1 2 1 2 1 Z " fill="#000002" transform="translate(621,761)"/>
<path d="M0 0 C2 1 2 1 2 1 Z " fill="#000002" transform="translate(626,760)"/>
<path d="M0 0 C2 1 2 1 2 1 Z " fill="#000002" transform="translate(638,756)"/>
<path d="M0 0 C2 1 2 1 2 1 Z " fill="#000002" transform="translate(642,755)"/>
<path d="M0 0 C2 1 2 1 2 1 Z " fill="#000002" transform="translate(656,751)"/>
<path d="M0 0 C2 1 2 1 2 1 Z " fill="#000002" transform="translate(666,748)"/>
<path d="M0 0 C2 1 2 1 2 1 Z " fill="#000002" transform="translate(670,747)"/>
<path d="M0 0 C2 1 2 1 2 1 Z " fill="#D1DCC3" transform="translate(390,740)"/>
<path d="" fill="#9B8E34" transform="translate(0,0)"/>
<path d="M0 0 C2 1 2 1 2 1 Z " fill="#9B8E34" transform="translate(703,729)"/>
<path d="M0 0 C2 1 2 1 2 1 Z " fill="#D1DCC3" transform="translate(364,729)"/>
<path d="M0 0 C2 1 2 1 2 1 Z " fill="#9B8E34" transform="translate(705,728)"/>
<path d="M0 0 C2 1 2 1 2 1 Z " fill="#000002" transform="translate(754,723)"/>
<path d="M0 0 C2 1 2 1 2 1 Z " fill="#B6B57B" transform="translate(730,723)"/>
<path d="M0 0 C2 1 2 1 2 1 Z " fill="#000002" transform="translate(774,717)"/>
<path d="M0 0 C2 1 2 1 2 1 Z " fill="#000002" transform="translate(778,716)"/>
<path d="M0 0 C2 1 2 1 2 1 Z " fill="#000002" transform="translate(782,715)"/>
<path d="M0 0 C2 1 2 1 2 1 Z " fill="#D1DCC3" transform="translate(332,715)"/>
<path d="M0 0 C2 1 2 1 2 1 Z " fill="#000002" transform="translate(789,713)"/>
<path d="M0 0 C2 1 2 1 2 1 Z " fill="#000002" transform="translate(796,711)"/>
<path d="M0 0 C2 1 2 1 2 1 Z " fill="#000002" transform="translate(799,710)"/>
<path d="M0 0 C2 1 2 1 2 1 Z " fill="#000002" transform="translate(806,708)"/>
<path d="M0 0 C2 1 2 1 2 1 Z " fill="#000002" transform="translate(812,706)"/>
<path d="M0 0 C2 1 2 1 2 1 Z " fill="#D1DCC3" transform="translate(312,706)"/>
<path d="M0 0 C2 1 2 1 2 1 Z " fill="#000002" transform="translate(816,705)"/>
<path d="M0 0 C2 1 2 1 2 1 Z " fill="#B6B57B" transform="translate(310,705)"/>
<path d="M0 0 C2 1 2 1 2 1 Z " fill="#D1DCC3" transform="translate(305,703)"/>
<path d="M0 0 C2 1 2 1 2 1 Z " fill="#000002" transform="translate(827,702)"/>
<path d="M0 0 C2 1 2 1 2 1 Z " fill="#D1DCC3" transform="translate(296,699)"/>
<path d="M0 0 C2 1 2 1 2 1 Z " fill="#000002" transform="translate(840,698)"/>
<path d="M0 0 C2 1 2 1 2 1 Z " fill="#000002" transform="translate(844,697)"/>
<path d="M0 0 C2 1 2 1 2 1 Z " fill="#D1DCC3" transform="translate(289,696)"/>
<path d="M0 0 C2 1 2 1 2 1 Z " fill="#B6B57B" transform="translate(285,694)"/>
<path d="M0 0 C2 1 2 1 2 1 Z " fill="#000002" transform="translate(906,679)"/>
<path d="M0 0 C2 1 2 1 2 1 Z " fill="#000002" transform="translate(927,673)"/>
<path d="M0 0 C2 1 2 1 2 1 Z " fill="#000002" transform="translate(934,671)"/>
<path d="" fill="#000002" transform="translate(0,0)"/>
<path d="" fill="#000002" transform="translate(0,0)"/>
<path d="" fill="#000002" transform="translate(0,0)"/>
<path d="" fill="#9B8E34" transform="translate(0,0)"/>
<path d="" fill="#9B8E34" transform="translate(0,0)"/>
<path d="" fill="#000002" transform="translate(0,0)"/>
<path d="" fill="#9B8E34" transform="translate(0,0)"/>
<path d="" fill="#000002" transform="translate(0,0)"/>
<path d="" fill="#000002" transform="translate(0,0)"/>
<path d="" fill="#000002" transform="translate(0,0)"/>
<path d="" fill="#000002" transform="translate(0,0)"/>
<path d="" fill="#9B8E34" transform="translate(0,0)"/>
<path d="" fill="#D1DCC3" transform="translate(0,0)"/>
<path d="" fill="#000002" transform="translate(0,0)"/>
<path d="" fill="#000002" transform="translate(0,0)"/>
<path d="" fill="#9B8E34" transform="translate(0,0)"/>
<path d="M0 0 C2 1 2 1 2 1 Z " fill="#9B8E34" transform="translate(429,581)"/>
<path d="" fill="#000002" transform="translate(0,0)"/>
<path d="M0 0 C2 1 2 1 2 1 Z " fill="#9B8E34" transform="translate(553,577)"/>
<path d="" fill="#9B8E34" transform="translate(0,0)"/>
<path d="" fill="#000002" transform="translate(0,0)"/>
<path d="" fill="#000002" transform="translate(0,0)"/>
<path d="" fill="#000002" transform="translate(0,0)"/>
<path d="" fill="#000002" transform="translate(0,0)"/>
<path d="" fill="#9B8E34" transform="translate(0,0)"/>
<path d="" fill="#000002" transform="translate(0,0)"/>
<path d="" fill="#9B8E34" transform="translate(0,0)"/>
<path d="" fill="#D1DCC3" transform="translate(0,0)"/>
<path d="" fill="#D1DCC3" transform="translate(0,0)"/>
<path d="" fill="#000002" transform="translate(0,0)"/>
<path d="" fill="#D1DCC3" transform="translate(0,0)"/>
<path d="M0 0 C2 1 2 1 2 1 Z " fill="#9B8E34" transform="translate(650,499)"/>
<path d="M0 0 C2 1 2 1 2 1 Z " fill="#9B8E34" transform="translate(491,499)"/>
<path d="M0 0 C2 1 2 1 2 1 Z " fill="#9B8E34" transform="translate(384,498)"/>
<path d="M0 0 C2 1 2 1 2 1 Z " fill="#9B8E34" transform="translate(379,498)"/>
<path d="M0 0 C2 1 2 1 2 1 Z " fill="#9B8E34" transform="translate(375,498)"/>
<path d="M0 0 C2 1 2 1 2 1 Z " fill="#9B8E34" transform="translate(372,498)"/>
<path d="" fill="#D1DCC3" transform="translate(0,0)"/>
<path d="" fill="#D1DCC3" transform="translate(0,0)"/>
<path d="" fill="#D1DCC3" transform="translate(0,0)"/>
<path d="" fill="#D1DCC3" transform="translate(0,0)"/>
<path d="" fill="#D1DCC3" transform="translate(0,0)"/>
<path d="" fill="#000002" transform="translate(0,0)"/>
<path d="M0 0 C2 1 2 1 2 1 Z " fill="#000002" transform="translate(326,453)"/>
<path d="M0 0 C2 1 2 1 2 1 Z " fill="#000002" transform="translate(329,451)"/>
<path d="M0 0 C2 1 2 1 2 1 Z " fill="#000002" transform="translate(336,448)"/>
<path d="M0 0 C2 1 2 1 2 1 Z " fill="#000002" transform="translate(340,447)"/>
<path d="" fill="#D1DCC3" transform="translate(0,0)"/>
<path d="" fill="#D1DCC3" transform="translate(0,0)"/>
<path d="" fill="#D1DCC3" transform="translate(0,0)"/>
<path d="" fill="#9B8E34" transform="translate(0,0)"/>
<path d="" fill="#000002" transform="translate(0,0)"/>
<path d="" fill="#000002" transform="translate(0,0)"/>
<path d="" fill="#000002" transform="translate(0,0)"/>
<path d="" fill="#9B8E34" transform="translate(0,0)"/>
<path d="" fill="#9B8E34" transform="translate(0,0)"/>
<path d="" fill="#9B8E34" transform="translate(0,0)"/>
<path d="" fill="#000002" transform="translate(0,0)"/>
<path d="" fill="#000002" transform="translate(0,0)"/>
<path d="" fill="#000002" transform="translate(0,0)"/>
<path d="" fill="#9B8E34" transform="translate(0,0)"/>
<path d="" fill="#D1DCC3" transform="translate(0,0)"/>
<path d="" fill="#D1DCC3" transform="translate(0,0)"/>
<path d="" fill="#D1DCC3" transform="translate(0,0)"/>
<path d="" fill="#000002" transform="translate(0,0)"/>
<path d="" fill="#000002" transform="translate(0,0)"/>
<path d="" fill="#D1DCC3" transform="translate(0,0)"/>
<path d="" fill="#D1DCC3" transform="translate(0,0)"/>
<path d="" fill="#D1DCC3" transform="translate(0,0)"/>
<path d="" fill="#000002" transform="translate(0,0)"/>
<path d="" fill="#000002" transform="translate(0,0)"/>
<path d="" fill="#000002" transform="translate(0,0)"/>
<path d="" fill="#000002" transform="translate(0,0)"/>
<path d="" fill="#000002" transform="translate(0,0)"/>
<path d="" fill="#000002" transform="translate(0,0)"/>
<path d="" fill="#000002" transform="translate(0,0)"/>
<path d="" fill="#000002" transform="translate(0,0)"/>
<path d="" fill="#000002" transform="translate(0,0)"/>
<path d="" fill="#D1DCC3" transform="translate(0,0)"/>
<path d="" fill="#9B8E34" transform="translate(0,0)"/>
<path d="" fill="#9B8E34" transform="translate(0,0)"/>
<path d="" fill="#9B8E34" transform="translate(0,0)"/>
<path d="" fill="#9B8E34" transform="translate(0,0)"/>
<path d="" fill="#9B8E34" transform="translate(0,0)"/>
<path d="" fill="#9B8E34" transform="translate(0,0)"/>
<path d="" fill="#9B8E34" transform="translate(0,0)"/>
<path d="" fill="#9B8E34" transform="translate(0,0)"/>
<path d="" fill="#9B8E34" transform="translate(0,0)"/>
<path d="" fill="#9B8E34" transform="translate(0,0)"/>
<path d="" fill="#9B8E34" transform="translate(0,0)"/>
<path d="" fill="#9B8E34" transform="translate(0,0)"/>
<path d="" fill="#9B8E34" transform="translate(0,0)"/>
<path d="" fill="#9B8E34" transform="translate(0,0)"/>
<path d="" fill="#9B8E34" transform="translate(0,0)"/>
<path d="" fill="#9B8E34" transform="translate(0,0)"/>
<path d="" fill="#9B8E34" transform="translate(0,0)"/>
<path d="" fill="#9B8E34" transform="translate(0,0)"/>
<path d="" fill="#9B8E34" transform="translate(0,0)"/>
<path d="" fill="#9B8E34" transform="translate(0,0)"/>
<path d="" fill="#9B8E34" transform="translate(0,0)"/>
<path d="" fill="#9B8E34" transform="translate(0,0)"/>
<path d="" fill="#9B8E34" transform="translate(0,0)"/>
<path d="" fill="#9B8E34" transform="translate(0,0)"/>
<path d="" fill="#9B8E34" transform="translate(0,0)"/>
<path d="" fill="#9B8E34" transform="translate(0,0)"/>
<path d="" fill="#9B8E34" transform="translate(0,0)"/>
<path d="" fill="#9B8E34" transform="translate(0,0)"/>
<path d="" fill="#9B8E34" transform="translate(0,0)"/>
<path d="" fill="#9B8E34" transform="translate(0,0)"/>
<path d="" fill="#9B8E34" transform="translate(0,0)"/>
<path d="" fill="#9B8E34" transform="translate(0,0)"/>
<path d="" fill="#9B8E34" transform="translate(0,0)"/>
<path d="" fill="#9B8E34" transform="translate(0,0)"/>
<path d="" fill="#D1DCC3" transform="translate(0,0)"/>
<path d="" fill="#9B8E34" transform="translate(0,0)"/>
<path d="" fill="#9B8E34" transform="translate(0,0)"/>
<path d="" fill="#9B8E34" transform="translate(0,0)"/>
<path d="" fill="#9B8E34" transform="translate(0,0)"/>
<path d="" fill="#9B8E34" transform="translate(0,0)"/>
<path d="" fill="#000002" transform="translate(0,0)"/>
<path d="" fill="#9B8E34" transform="translate(0,0)"/>
<path d="" fill="#9B8E34" transform="translate(0,0)"/>
<path d="" fill="#000002" transform="translate(0,0)"/>
<path d="" fill="#D1DCC3" transform="translate(0,0)"/>
<path d="" fill="#D1DCC3" transform="translate(0,0)"/>
<path d="" fill="#9B8E34" transform="translate(0,0)"/>
<path d="" fill="#9B8E34" transform="translate(0,0)"/>
<path d="" fill="#9B8E34" transform="translate(0,0)"/>
<path d="" fill="#9B8E34" transform="translate(0,0)"/>
<path d="" fill="#9B8E34" transform="translate(0,0)"/>
<path d="" fill="#D1DCC3" transform="translate(0,0)"/>
<path d="" fill="#D1DCC3" transform="translate(0,0)"/>
<path d="" fill="#000002" transform="translate(0,0)"/>
<path d="" fill="#D1DCC3" transform="translate(0,0)"/>
<path d="" fill="#D1DCC3" transform="translate(0,0)"/>
<path d="" fill="#D1DCC3" transform="translate(0,0)"/>
<path d="" fill="#D1DCC3" transform="translate(0,0)"/>
<path d="" fill="#000002" transform="translate(0,0)"/>
<path d="" fill="#000002" transform="translate(0,0)"/>
<path d="" fill="#000002" transform="translate(0,0)"/>
</svg>
